<?xml version="1.0" encoding="UTF-8" standalone="no"?>
<!-- Created with Inkscape (http://www.inkscape.org/) -->

<svg
   version="1.1"
   id="svg1"
   width="1066.7344"
   height="1117.3927"
   viewBox="0 0 1066.7344 1117.3927"
   sodipodi:docname="O GOD - 20250809.svg"
   inkscape:version="1.4.2 (ebf0e940, 2025-05-08)"
   inkscape:export-filename="O GOD - 20250809.png"
   inkscape:export-xdpi="96"
   inkscape:export-ydpi="96"
   xmlns:inkscape="http://www.inkscape.org/namespaces/inkscape"
   xmlns:sodipodi="http://sodipodi.sourceforge.net/DTD/sodipodi-0.dtd"
   xmlns="http://www.w3.org/2000/svg"
   xmlns:svg="http://www.w3.org/2000/svg">
  <defs
     id="defs1" />
  <sodipodi:namedview
     id="namedview1"
     pagecolor="#ffffff"
     bordercolor="#000000"
     borderopacity="0.25"
     inkscape:showpageshadow="2"
     inkscape:pageopacity="0.0"
     inkscape:pagecheckerboard="0"
     inkscape:deskcolor="#d1d1d1"
     inkscape:zoom="0.63102628"
     inkscape:cx="502.35626"
     inkscape:cy="661.62062"
     inkscape:window-width="1792"
     inkscape:window-height="1120"
     inkscape:window-x="0"
     inkscape:window-y="0"
     inkscape:window-maximized="0"
     inkscape:current-layer="g1">
    <inkscape:page
       x="0"
       y="0"
       width="1066.7344"
       height="1117.3927"
       id="page2"
       margin="0"
       bleed="0" />
  </sodipodi:namedview>
  <g
     inkscape:groupmode="layer"
     inkscape:label="Image"
     id="g1"
     transform="translate(-149.33331,-123.6492)">
    <g
       id="g2"
       style="display:inline"
       inkscape:label="Group"
       inkscape:export-filename="g2.svg"
       inkscape:export-xdpi="96"
       inkscape:export-ydpi="96">
      <path
         style="display:inline;fill:#ffffff;fill-opacity:1;stroke:none;stroke-opacity:1"
         d="m 663.33329,1240.4513 c -62.83101,-3.7818 -116.19866,-15.4341 -170.08224,-37.1356 -94.71708,-38.1472 -171.23004,-103.5193 -229.25107,-195.8706 l -11.33333,-18.03915 -29.66666,-0.0363 -29.66667,-0.0363 v -14.66666 -14.66667 h -22 -22 V 939.5473 919.09465 l 3.66667,-1.7041 c 9.1968,-4.27425 41.05705,-17.61546 54.33333,-22.75161 8.06667,-3.12073 15.71306,-6.21034 16.99198,-6.86581 2.10369,-1.07817 1.73744,-2.36226 -3.84288,-13.47335 -21.83846,-43.48298 -39.18804,-107.78957 -45.94598,-170.29982 -2.15556,-19.9387 -2.17388,-82.8553 -0.0301,-103.33333 8.95486,-85.53899 30.65165,-154.02702 70.06609,-221.17044 27.3642,-46.61555 54.03635,-80.20581 92.38386,-116.34603 31.38032,-29.57405 36.47487,-33.74877 69.71034,-57.12407 9.81395,-6.90239 34.95143,-21.47794 50.42639,-29.23893 53.45168,-26.80702 117.2968,-45.40506 176.90693,-51.53286 20.66144,-2.12396 78.09707,-2.14441 98.66666,-0.0351 72.29875,7.41375 141.13415,29.615 201.99999,65.15039 91.0484,53.15689 172.7998,146.06284 214.3795,243.63042 25.6508,60.19008 39.7341,122.01157 42.98,188.66886 3.2108,65.93917 -3.5913,122.2829 -22.294,184.66446 -4.614,15.38965 -23.2595,63.85614 -28.6464,74.46253 -1.4328,2.82107 -2.3913,5.34308 -2.1299,5.60448 0.2614,0.26141 7.0533,2.85212 15.0931,5.75714 15.3722,5.55448 29.3566,11.14813 49.2844,19.71339 l 12,5.15778 0.3672,20.98566 0.3671,20.98567 h -20.117 -20.117 l 0.4165,14.66939 0.4165,14.66938 -32,0.0206 -32,0.0206 -5.274,8.97671 c -22.2461,37.86444 -55.8686,80.42564 -86.4187,109.39354 -45.24884,42.9054 -93.04854,73.3481 -149.82638,95.4216 -70.08926,27.2486 -146.55975,40.9666 -207.81424,37.2796 z"
         id="path14"
         sodipodi:nodetypes="ssscccccccccsssssssssssssssssssscccccccccsssss"
         inkscape:label="BG - White"
         inkscape:export-filename="path14.svg"
         inkscape:export-xdpi="96"
         inkscape:export-ydpi="96" />
      <path
         style="display:inline;fill:#9fa49f;fill-opacity:1;stroke:none;stroke-width:0.202013;stroke-opacity:1"
         d="m 458.23868,439.64854 c -1.64935,-1.7504 -4.5135,-7.1945 -4.67627,-8.88854 -0.0734,-0.76358 0.0184,-1.19601 0.4317,-2.03376 1.8114,-3.6718 8.48562,-10.41677 13.91386,-14.06136 0.85809,-0.57613 2.72166,-1.62648 4.14128,-2.33412 10.54823,-5.25797 18.15725,-4.81622 21.2382,1.23302 0.6227,1.22263 0.56763,1.993 -0.19326,2.70379 -0.34455,0.32185 -2.26819,1.41367 -4.27477,2.42626 -4.04224,2.03987 -5.06407,2.63775 -9.03771,5.28807 -7.35619,4.90641 -13.7862,10.19993 -14.55093,11.97909 -0.58776,1.36743 -4.16915,4.07626 -5.64289,4.26807 -0.60904,0.0793 -0.80829,-0.006 -1.34921,-0.58052 z"
         id="path17"
         inkscape:label="Hair Band" />
      <path
         style="display:inline;fill:#fc9805"
         d="m 722.66662,897.99995 c 4.66353,-3.86464 3.80408,2.74809 13.12471,1.25281 8.27549,0.13156 -11.5287,1.31205 -13.69081,-0.21117 z M 585.3333,895.99917 c -9.50203,0.82869 -14.83523,-1.39252 -21.74429,-6.05794 -3.57422,6.42743 -9.46446,4.92363 -15.67657,3.79482 -26.98044,-3.79028 -54.4954,-6.62529 -80.32387,-15.60194 0.98148,-9.50136 23.9253,-10.6082 33.48794,-14.50944 11.43514,-0.55643 34.30799,-11.68448 39.32209,-1.59817 -18.95755,-5.62615 -8.18925,15.72291 4.26803,8.40436 -11.71342,5.94038 1.36214,19.16834 8.06544,16.89985 -16.10028,-5.18801 17.95999,-17.05632 -2.66077,-20.41882 -11.04557,-2.74894 9.62304,-8.64635 13.34832,-2.1029 11.33023,2.25953 16.36228,17.88666 1.34137,17.64477 -7.26454,9.9575 20.06266,-4.16451 16.83655,10.37616 -1.22135,-4.8584 11.20877,7.96809 3.73576,3.16925 z m -84.66666,-21.3143 c -6.38233,-8.57472 -11.65254,8.62603 -0.28722,0.7892 z m 19.31924,-0.66794 c 4.19783,-13.59204 -24.30272,0.45873 -5.73641,1.68567 2.01657,0.58904 4.40628,0.003 5.73641,-1.68567 z m 249.09741,21.0722 c 8.19839,-1.33741 -2.47677,2.57935 0,0 z m 31.30319,-1.75585 c 12.90495,-12.78377 1.70596,-29.30643 -5.60976,-39.57408 3.21913,1.3885 13.26807,4.93598 15.67685,3.03816 -12.72022,-1.44292 -0.7061,-3.41925 5.88702,0.11818 -1.46246,4.00047 19.77802,-0.0391 22.64285,10.10559 7.82603,4.70056 16.32327,1.7621 25.08102,5.95091 6.79161,-4.06668 -21.3174,-8.33003 -3.63987,-8.52507 14.17011,1.3159 24.75894,6.09147 33.8991,15.13935 -8.373,3.6385 -29.6009,15.70077 -30.73514,-0.33108 -14.0907,-8.47691 -17.07714,7.27644 -13.26027,11.26236 -7.44575,0.56846 -16.43019,4.63455 -17.32768,-3.70177 -8.88708,-8.6988 -38.3956,-1.35047 -15.95977,6.29495 -0.58969,1.50923 -22.48054,2.49078 -16.65435,0.2225 z m 33.78942,-16.10874 c 12.52856,-9.60945 -10.83292,-11.11748 -15.50928,-3.89126 -10.81236,4.30159 1.66883,3.77359 4,2.443 2.59932,4.57841 7.82496,4.97267 11.50928,1.44826 z m -17.55384,-10.48583 c -5.59724,-6.73246 -19.6969,-3.16683 -4.32397,1.15549 l 2.6479,-0.0786 z m -188.6221,25.99087 c -11.4893,-0.97757 -26.60714,-10.82628 -34.46874,-9.61075 5.58151,7.39567 9.33373,12.25964 -0.19658,3.84077 -10.93832,-12.48485 -7.116,-33.17491 1.8065,-45.98196 15.64421,-23.31409 44.84709,-30.37502 71.20694,-32.06493 8.21153,0.0925 23.07001,-3.60366 6.31855,-5.34149 -38.96634,-9.24434 -82.1898,11.34226 -99.7333,47.30056 -8.04415,12.58478 -10.97077,-18.45181 -2.88815,-20.48987 9.16768,-15.08088 21.09213,-28.56051 34.70088,-39.77355 10.76454,-5.65053 23.14116,-11.57934 36.78456,-12.92934 35.97829,-2.16577 70.89607,8.96562 103.6485,22.72363 6.28022,3.40155 29.00916,5.93068 23.76097,11.64616 -16.65445,3.43192 -34.94884,4.14761 -49.65384,13.33645 11.64302,4.9357 33.18724,2.21836 47.93753,-0.93719 23.52126,-7.04098 49.62173,-11.59433 67.28273,-30.19476 6.44105,-12.63237 22.82646,1.73167 7.60586,6.1661 -4.71967,5.76429 20.57431,1.9262 10.77174,14.70026 -13.99917,8.85224 -33.6631,1.06516 -46.17446,15.05191 -20.29174,11.29707 -34.23142,31.318 -55.37636,41.1617 8.37792,1.83307 26.65142,-6.7667 13.62517,6.66696 -11.08066,10.70611 -25.64121,-0.55568 -32.65726,-8.0604 -0.33712,15.46877 -18.81771,-19.45135 -13.33372,0.76427 6.81782,6.21003 12.48923,15.60685 -1.27891,17.19436 -24.91804,8.02942 -51.67055,5.57141 -77.46485,5.79282 -4.08212,-0.17756 -8.1812,-0.3242 -12.22376,-0.96171 z m 4.66667,-70.43718 c 7.40811,-3.69454 24.94982,-5.10382 26.93471,-9.00537 -19.00358,0.64555 -40.39391,6.06124 -52.58208,21.65007 -7.40459,9.10034 -2.14657,9.78317 3.51585,2.43213 6.23914,-6.5875 12.99956,-12.93068 22.13152,-15.07683 z M 612.5499,794.64011 c 4.92781,-3.73353 32.99879,-15.86229 14.57186,-11.3167 -7.54832,3.09867 -24.05119,9.30856 -23.10448,16.24635 2.95464,-1.44757 5.71215,-3.24633 8.53262,-4.92965 z m 143.11672,97.81013 c 5.29028,-1.12873 4.47092,2.09899 0,0 z M 738.481,889.25415 c -9.58184,-7.84665 14.8794,8.86039 0,0 z m 40.44555,-20.58754 c 0.98506,-7.67377 0.69269,8.65764 0,0 z m 62.41788,-1.96489 c -4.73252,-7.77033 16.15041,1.65789 1.74027,0.89091 l -1.74027,-0.89088 z M 550.99925,848.99995 c -10.97089,-10.75026 9.46734,-23.1718 -4.21665,-30.87673 -0.22951,-2.60699 19.60593,2.55003 16.63459,6.22824 -5.92426,5.0477 -2.51476,29.27674 -12.41794,24.64849 z m 6.33405,-22.33333 c -3.19314,-5.3269 -2.12646,4.9586 0,0 z m 221.61164,-23.56805 c 3.82112,-10.77664 21.87579,-11.00992 20.67327,-23.66734 -4.39784,-8.79786 14.08823,-2.90454 18.44629,-5.12822 -5.20077,7.70222 -11.50554,13.70369 1.4113,14.23809 -5.54888,14.9367 -24.50914,14.61063 -37.80081,15.11337 z"
         id="path5"
         inkscape:label="Chicken - Color 1" />
      <path
         style="display:inline;fill:#db6307"
         d="m 633.79095,899.96547 c -18.84251,6.71598 -56.41922,-21.10808 -29.63894,-14.91661 33.11369,14.40289 70.8807,9.16122 105.66088,5.17012 16.33116,-8.13543 19.60286,-15.0072 33.03778,1.2094 14.56471,1.8622 23.93949,1.60407 33.16465,-12.08556 2.41724,-6.38481 3.3306,-28.9013 12.39143,-14.80757 25.24619,25.04151 -25.20863,38.94269 -46.12123,34.81835 -23.37641,-5.83381 -50.10897,5.19404 -79.69893,1.61692 -9.60189,-0.21246 -19.20548,-0.47153 -28.79564,-1.00505 z m 137.84789,-4.77108 c -4.90861,-1.51225 -2.44949,2.32201 0,0 z m -46.63888,5.17436 c 11.63688,-1.27392 11.30333,1.56844 0,0 z m -133.17007,-13.3688 c -4.11884,-6.00256 7.4417,7.09746 0,0 z"
         id="path4"
         sodipodi:nodetypes="ccccccccccccccc"
         inkscape:label="Chicken - Color 2" />
      <path
         style="display:inline;fill:#006524"
         d="m 655.33329,1221.7537 c -34.03732,-2.9651 -65.47158,-7.8021 -89.33332,-13.7465 -85.9909,-21.4218 -160.9862,-63.7563 -220.02512,-124.2031 -27.12185,-27.7686 -45.73232,-51.6452 -68.02093,-87.26872 -0.96281,-1.53884 -4.45593,-7.68884 -7.7625,-13.66667 l -6.01193,-10.86877 h 35.24358 c 21.42112,0 35.24358,0.49781 35.24358,1.26928 0,3.49376 37.23438,24.53319 63.33333,35.78678 32.76303,14.127 75.71875,27.8098 103.60177,33.0005 7.11432,1.3244 12.62891,2.9035 12.25465,3.5091 -0.37426,0.6055 0.59034,1.101 2.14357,1.101 1.55322,0 2.49911,0.5258 2.10196,1.1684 -1.15913,1.8755 27.90889,8.8503 63.89804,15.3323 44.50485,8.0157 48.0302,8.4811 77.02681,10.1681 39.2523,2.2838 76.8039,-0.6878 117.37388,-9.2882 6.74628,-1.4301 19.16596,-3.8653 27.59929,-5.4115 14.90624,-2.733 39.96167,-8.5568 44,-10.2274 1.38004,-0.5708 0.76008,-1.1268 -2,-1.7934 l -4,-0.9661 4.35659,-0.1578 c 17.78303,-0.6439 83.54841,-19.9897 118.31007,-34.8025 26.39189,-11.24618 60.40239,-29.60407 65.60269,-35.41036 l 2.9361,-3.2782 h 33.3972 c 19.4615,0 33.3973,0.51232 33.3973,1.22776 0,2.48764 -15.3893,27.9638 -27.5099,45.5412 -47.8294,69.3624 -102.52012,117.878 -170.49005,151.2401 -69.96845,34.3431 -147.76991,53.0508 -217.99999,52.4192 -12.83333,-0.1154 -25.73333,-0.419 -28.66667,-0.6745 z m 23.98568,-33.1509 c 3.6223,-1.2298 9.75737,-4.0259 13.63349,-6.2134 l 7.0475,-3.9774 v -19.0064 -19.0064 l -12.20483,-0.8663 c -6.71266,-0.4765 -16.23766,-0.8663 -21.16667,-0.8663 h -8.96183 l -0.83334,4.1667 c -0.45833,2.2916 -0.83333,7.0916 -0.83333,10.6666 v 6.5 h 9.4219 9.42189 l -0.42189,3.6156 c -0.35042,3.0031 -1.43839,3.9209 -6.4219,5.4178 -7.77105,2.3342 -18.85961,1.2936 -23.8148,-2.2348 -5.67547,-4.0413 -7.28792,-9.2243 -6.58047,-21.1521 1.04822,-17.6735 7.4134,-24.9302 20.98401,-23.9231 6.23994,0.463 7.76443,1.1481 10.89242,4.8949 l 3.63702,4.3566 11.77424,-1.6849 c 6.47584,-0.9267 12.22497,-2.0767 12.77587,-2.5557 1.7206,-1.4959 -5.68334,-14.5525 -10.50688,-18.5285 -6.24981,-5.1516 -12.23172,-6.8625 -27.20767,-7.7816 -9.60551,-0.5896 -14.51489,-0.2565 -20.08507,1.3628 -19.48334,5.664 -31.11786,23.6723 -31.14871,48.213 -0.0347,27.6121 19.75046,42.9579 53.31321,41.3511 5.88492,-0.2817 13.66354,-1.5184 17.28584,-2.7482 z m 96.87296,-2.5268 c 22.16069,-4.6971 34.15093,-16.6674 35.4986,-35.4396 1.6888,-23.524 -10.82529,-46.4565 -28.66872,-52.5363 -11.27375,-3.8414 -31.36499,-2.1506 -42.35519,3.5645 -6.45631,3.3573 -14.10498,11.786 -17.84853,19.6687 -3.0736,6.4719 -3.48046,8.9777 -3.4638,21.3333 0.0203,15.0589 2.07657,21.9653 9.39752,31.5635 8.87406,11.6345 27.0383,16.1702 47.44012,11.8459 z m -18.71448,-21.624 c -5.66707,-2.8842 -9.28341,-10.6325 -10.36415,-22.2059 -1.46002,-15.635 4.69585,-24.9128 16.52977,-24.9128 11.62908,0 17.79837,8.3939 19.59912,26.6666 1.3181,13.3751 -3.71885,20.6571 -15.24224,22.036 -4.21468,0.5043 -7.34567,0.033 -10.5225,-1.5839 z m 108.76823,-1.1838 c 32.08598,-10.0964 42.14282,-17.0214 46.50355,-32.0218 2.98094,-10.2541 1.67864,-19.1241 -4.76378,-32.4462 -9.0412,-18.696 -20.78048,-28.2778 -35.07671,-28.63 -5.00913,-0.1235 -13.23294,1.8256 -29.90879,7.0882 -12.65,3.9922 -23,7.8561 -23,8.5865 0,0.7303 5.20007,20.1398 11.55571,43.1321 8.25678,29.8699 12.03817,41.6191 13.24573,41.1557 0.92951,-0.3567 10.57945,-3.4457 21.44429,-6.8645 z m -8.04957,-43.9985 -7.3687,-22.0636 3.49358,-1.3282 c 1.92147,-0.7306 5.96236,-1.6667 8.97975,-2.0802 4.64928,-0.6373 6.14695,-0.196 9.81782,2.8928 5.05061,4.2498 8.43833,10.415 11.4887,20.908 1.96882,6.7724 1.98551,7.9971 0.16834,12.3463 -1.61218,3.8584 -3.50676,5.4867 -9.43449,8.1082 -4.07946,1.8042 -7.948,3.2803 -8.59675,3.2803 -0.64875,0 -4.49547,-9.9286 -8.54825,-22.0636 z m -339.25578,37.3245 c 12.05641,-4.108 20.02137,-13.7395 25.69799,-31.0748 2.99291,-9.1398 2.35543,-27.9506 -1.175,-34.6719 -6.48032,-12.3375 -22.3096,-22.8309 -38.38776,-25.4477 -19.34957,-3.1492 -37.33942,7.6711 -47.68146,28.6787 -10.54222,21.4143 -5.00148,41.7302 14.68459,53.8432 15.46855,9.5179 34.20444,12.9853 46.86164,8.6725 z m -29.16157,-23.3458 c -5.64664,-2.7951 -9.77879,-8.8814 -9.77879,-14.4034 0,-4.5169 3.98415,-15.0895 8.1855,-21.7215 7.06313,-11.1494 17.85255,-13.2216 26.87346,-5.1615 4.02293,3.5945 4.27437,4.3567 4.27437,12.9566 0,7.6523 -0.71883,10.5976 -4.4228,18.1214 -6.40764,13.0158 -13.577,15.9279 -25.13174,10.2084 z m 343.30452,-86.1598 c 0.9625,-0.3851 2.1125,-0.3378 2.55556,0.1053 0.44305,0.443 -0.34445,0.7582 -1.75,0.7003 -1.55326,-0.064 -1.8692,-0.3799 -0.80556,-0.8056 z M 1118.4906,882.04617 c -0.3412,-0.34124 -6.2912,-1.58145 -13.2222,-2.75601 -6.931,-1.17456 -15.0018,-3.27246 -17.9351,-4.662 -6.684,-3.16622 -21.0516,-6.53339 -29.7222,-6.96562 -7.6322,-0.38047 -7.7267,1.19373 1.0603,-17.66259 7.4807,-16.05306 19.3194,-46.38754 24.1969,-62 4.7449,-15.18778 11.5064,-42.83733 12.0642,-49.33333 l 0.4008,-4.66666 -10.7574,-0.38334 -10.7575,-0.38334 3.0148,-17.61666 c 15.692,-91.69754 -3.2494,-193.86766 -49.7596,-268.40315 -20.7366,-33.23184 -44.61376,-62.44684 -69.09921,-84.54682 -58.67767,-52.96106 -129.68932,-87.42566 -208.6411,-101.2613 -85.63057,-15.00605 -177.16295,0.26875 -259.85373,43.36404 -52.92431,27.58213 -101.03055,69.85177 -136.4527,119.89725 -35.58965,50.28215 -59.10749,107.10038 -68.43371,165.33332 -4.87961,30.46835 -3.82739,92.44705 2.15044,126.66666 1.40916,8.06667 2.56833,15.47188 2.57592,16.45602 0.0102,1.32343 -1.98248,1.71594 -7.65286,1.50746 -12.07887,-0.44412 -12.46834,-0.3432 -11.71891,3.03652 0.36588,1.65 2.23412,10.16907 4.15164,18.93125 6.1331,28.02531 19.93353,67.5726 34.33843,98.40208 l 6.07418,13 h -5.67779 c -8.56043,0 -20.39444,2.5058 -28.25831,5.98358 -3.89342,1.72185 -13.72556,4.09081 -22.03804,5.30984 -17.41709,2.55423 -14.64235,4.32377 -23.47535,-14.97102 -28.73452,-62.76762 -44.39584,-137.17881 -44.39584,-210.93668 0,-111.14382 27.69021,-204.7376 86.96321,-293.93839 48.25965,-72.62663 116.16962,-132.44439 192.3701,-169.44711 99.40578,-48.27113 209.3789,-60.84789 320.40877,-36.64263 109.9999,23.98072 208.90638,88.13189 279.53736,181.30911 58.5186,77.19852 91.0846,158.06521 101.4833,251.99998 4.4146,39.87829 3.7913,100.60243 -1.4164,137.99999 -5.448,39.12286 -18.2415,85.50732 -34.385,124.66666 -12.6845,30.76885 -14.8836,34.96665 -17.1374,32.71289 z m -22.3452,-388.25603 c 3.9306,-4.5646 3.8654,-5.5248 -0.7499,-11.04898 -2.6011,-3.11337 -4.2799,-6.35977 -3.8577,-7.45998 1.1269,-2.93663 2.7401,-2.34459 3.6663,1.34547 0.4546,1.81134 3.1268,5.71134 5.9381,8.66667 5.5195,5.80221 10.1725,6.84337 16.895,3.7804 3.782,-1.72319 7.2961,-7.32186 7.2961,-11.62419 0,-4.42674 -5.305,-17.21126 -8.9291,-21.51824 -7.1415,-8.48716 -15.3341,-9.95574 -26.5094,-4.75202 -11.4588,5.3357 -16.6223,14.69164 -13.8305,25.05975 2.0438,7.59015 6.0852,15.36511 10.0452,19.32502 3.4551,3.45516 5.9061,3.02194 10.0359,-1.7739 z m 4.7212,-22.70126 c -1.1962,-1.19622 7.0322,-4.64209 8.6692,-3.63043 1.9965,1.23391 -1.5068,4.54152 -4.8102,4.54152 -1.6214,0 -3.3579,-0.40999 -3.859,-0.91109 z M 298.72221,482.3333 c 2.16829,-4.58333 3.94281,-8.9551 3.94339,-9.71503 5.8e-4,-0.75994 -6.59895,-4.63817 -14.66562,-8.6183 -8.06666,-3.98012 -14.66666,-7.73815 -14.66666,-8.35117 0,-0.61302 0.91015,-2.87463 2.02257,-5.0258 1.87353,-3.62303 1.82849,-4.1053 -0.61135,-6.54514 -1.44865,-1.44865 -5.13587,-3.91031 -8.19382,-5.47036 -4.61033,-2.35202 -5.8402,-2.53226 -7.20108,-1.05532 -2.92289,3.17215 -19.50671,40.11534 -18.8159,41.91554 0.94542,2.46374 10.68984,7.19892 14.8145,7.19892 2.68769,0 3.88729,-1.03586 5.40434,-4.66667 1.07242,-2.56667 2.39181,-4.63651 2.93196,-4.59966 0.54016,0.0369 7.28211,2.98124 14.98211,6.54309 7.7,3.56184 14.47548,6.53169 15.05662,6.59966 0.58114,0.068 2.83066,-3.62642 4.99894,-8.20976 z m 19.06286,-36.74266 c 2.08179,-3.87767 3.49301,-7.81143 3.13603,-8.7417 -0.35697,-0.93026 -6.41026,-5.12941 -13.45175,-9.33144 -11.05421,-6.59663 -15.24426,-10.18419 -11.89451,-10.18419 0.49951,0 7.13987,3.68821 14.75635,8.19603 15.61569,9.24213 14.91068,9.31596 20.97075,-2.19603 l 3.50943,-6.66667 -3.35596,-2.66666 c -8.16544,-6.48831 -26.22314,-16.85072 -30.60285,-17.56145 -4.18658,-0.67939 -5.31277,-0.22793 -8.83364,3.54117 -2.38146,2.54936 -4.36994,6.41243 -4.85177,9.42563 l -0.81645,5.1058 -7.20117,-4.06409 c -8.32189,-4.69658 -9.88772,-4.15001 -13.99823,4.88627 -4.92482,10.82638 -5.09624,10.62374 21.18202,25.03849 13.01666,7.1402 24.56666,12.82175 25.66666,12.62566 1.1,-0.19608 3.70329,-3.52915 5.78509,-7.40682 z m 782.04643,-6.96194 c 5.502,-2.49647 5.7835,-2.88686 4.9795,-6.90661 -0.968,-4.84037 -5.3535,-10.10883 -9.8647,-11.85098 -2.497,-0.96427 -2.8068,-1.64061 -1.6994,-3.70983 1.5912,-2.97302 -2.2734,-9.5407 -8.1948,-13.92673 l -3.6144,-2.67728 -16.7189,11.07479 c -9.1954,6.09113 -16.7189,11.93263 -16.7189,12.98112 0,2.07342 7.1652,13.04679 9.4351,14.44965 0.7703,0.47607 6.2693,-1.96339 12.2201,-5.42102 10.1668,-5.9073 10.9259,-6.14116 12.5822,-3.87604 0.9694,1.3258 1.7626,3.15681 1.7626,4.06891 0,0.9121 0.5852,3.19742 1.3004,5.07849 1.6186,4.25741 6.2254,4.48425 14.5312,0.71553 z m -40.2101,-34.12251 c 13.4793,-7.75054 16.4178,-18.64471 8.3996,-31.14005 -5.1294,-7.99346 -11.1766,-12.97978 -18.0393,-14.87467 -10.4746,-2.89217 -26.937,9.91457 -28.3011,22.01646 -0.7766,6.89018 2.6796,14.4571 9.7316,21.30585 8.196,7.95991 17.5034,8.84825 28.2092,2.69241 z m -22.2881,-15.08361 c 0,-2.64587 16.6899,-14.51046 18.2364,-12.96397 1.2222,1.22219 -1.4798,4.58421 -7.5698,9.41889 -5.738,4.55529 -10.6666,6.19333 -10.6666,3.54508 z m -693.50024,11.33038 c 7.34483,-3.79816 18.69565,-19.38448 18.8043,-25.82102 0.0327,-1.93661 -7.75262,-5.59863 -11.90249,-5.59863 -1.82607,0 -2.96513,1.17212 -3.56327,3.66667 -1.42651,5.94927 -4.42903,11 -6.53919,11 -2.46085,0 -2.63324,0.71619 2.05113,-8.52123 4.3355,-8.54948 4.78949,-11.48068 2.45401,-15.84455 -2.59874,-4.8558 -6.90737,-7.54347 -12.16736,-7.58986 -9.98915,-0.0881 -22.30354,15.57728 -22.30354,28.37276 0,5.27411 0.73174,7.05181 4.71959,11.46588 8.58938,9.50742 20.20827,13.1303 28.44682,8.86998 z m -16.50714,-26.09449 c -1.33139,-1.47116 -2.05026,-3.04529 -1.59749,-3.49805 1.34059,-1.34059 4.65397,0.48374 6.23124,3.43091 1.98904,3.71655 -1.28811,3.76403 -4.63375,0.0671 z m 694.23858,-10.86672 c 10.0477,-6.35108 17.1021,-14.8327 17.1021,-20.56198 0,-6.45274 -7.0958,-13.89646 -13.2469,-13.89646 -3.7959,0 -4.0463,-0.25037 -2.723,-2.72296 1.2368,-2.31088 0.7715,-3.40878 -3.0745,-7.25474 -2.4924,-2.49248 -6.1792,-4.94525 -8.1927,-5.45061 -3.1807,-0.79832 -4.6214,0.022 -10.9845,6.25474 -4.02793,3.94547 -12.17088,12.45651 -18.09541,18.91344 l -10.77186,11.73987 6.49431,6.59347 c 3.57188,3.6264 7.08831,6.59346 7.8143,6.59346 0.72599,0 3.29855,-1.9177 5.71679,-4.26156 3.87822,-3.75891 4.39681,-3.9456 4.39681,-1.58279 0,2.69888 5.62416,8.87756 9.33336,10.25363 3.4357,1.2746 9.7528,-0.52252 16.2312,-4.61751 z m -18.8979,-14.17065 c 0,-1.71249 14.5307,-15.53483 15.4084,-14.65719 1.379,1.37902 -1.799,5.92531 -7.6324,10.91844 -5.4986,4.70666 -7.776,5.80163 -7.776,3.73875 z m -20.95436,-22.48064 c 12.47267,-13.33322 14.2877,-16.20792 14.2877,-22.6292 0,-7.9856 -6.29905,-15.87056 -17.17708,-21.50177 -11.50026,-5.95331 -14.28619,-5.777 -16.3266,1.03329 -1.85572,6.19384 -1.27857,7.10653 6.04026,9.55198 5.21726,1.74324 8.85993,5.45315 7.0911,7.22198 -0.51956,0.51957 -1.99834,0.0207 -3.28617,-1.10859 -12.45803,-10.92442 -28.94757,-6.85458 -28.94757,7.14464 0,4.56329 0.79557,6.13672 5.09516,10.077 3.99574,3.66182 5.94023,4.54533 9.01159,4.09455 2.69048,-0.39488 3.48595,-0.14433 2.5412,0.80042 -0.75637,0.75637 -1.37522,1.84127 -1.37522,2.41088 0,0.99964 12.96171,11.76434 14.16536,11.76434 0.32592,0 4.32204,-3.98678 8.88027,-8.85952 z m -18.51242,-14.02308 c -0.54247,-0.87774 0.35434,-2.61154 2.06902,-4 4.5821,-3.71036 5.83807,-2.93829 2.52027,1.54927 -3.37283,4.562 -3.30638,4.52652 -4.58929,2.45073 z M 409.26601,328.0479 c 2.02274,-1.44031 5.25282,-4.68384 7.17797,-7.20784 l 3.50027,-4.5891 -11.28163,-12.45882 -11.28164,-12.45882 4.27309,-3.67833 4.2731,-3.67832 -2.45316,-4.55523 c -1.34923,-2.50537 -4.16112,-6.19157 -6.24865,-8.19155 l -3.7955,-3.63632 -7.04828,6.18248 c -3.87655,3.40036 -11.77404,10.57507 -17.54999,15.9438 l -10.50171,9.76132 2.16698,4.19048 c 1.19184,2.30477 4.29445,5.81318 6.89469,7.79649 l 4.72772,3.606 4.319,-4.18615 4.31901,-4.18614 11.92688,11.9824 c 6.55979,6.59032 12.14677,11.9824 12.41552,11.9824 0.26875,0 2.1436,-1.17844 4.16633,-2.61875 z m 522.10243,-24.61502 c 4.46688,-2.92681 25.96484,-32.29711 25.96484,-35.47291 0,-3.25112 -11.51752,-11.0396 -15,-10.14342 -1.45532,0.3745 -2.33334,-0.15534 -2.33334,-1.40806 0,-1.10468 -2.04,-4.04851 -4.53333,-6.54184 -9.01238,-9.01238 -20.15139,-4.8593 -27.86678,10.38989 -1.97993,3.91328 -3.59988,8.67552 -3.59988,10.58277 0,5.00112 4.46144,9.94047 11.35748,12.5741 4.79828,1.83248 5.69467,2.65214 4.48907,4.1048 -2.35082,2.83256 -4.5935,2.18906 -9.93812,-2.85156 -2.72146,-2.56667 -5.65193,-4.66667 -6.51215,-4.66667 -0.86022,0 -3.23007,1.73897 -5.26633,3.86436 -4.43099,4.62495 -3.65898,6.97786 4.37799,13.34326 11.48309,9.09478 21.26193,11.20409 28.86055,6.22528 z m -7.3685,-27.23285 c 0,-2.85219 7.37292,-13.53338 9.3417,-13.53338 0.72873,0 1.32497,0.30923 1.32497,0.68718 0,0.91738 -9.57837,15.31282 -10.18877,15.31282 -0.26284,0 -0.4779,-1.10998 -0.4779,-2.46662 z m -484.4201,25.04447 c 5.49877,-2.08343 9.75347,-6.57953 9.75347,-10.30686 0,-2.74546 0.31676,-3.00128 1.99332,-1.60986 2.22312,1.84502 6.23843,-0.12374 12.92295,-6.33631 l 3.58294,-3.32997 -9.08574,-13.54207 c -9.31268,-13.88033 -12.81101,-16.78611 -20.20909,-16.78611 -7.29997,0 -17.42578,6.55783 -23.77307,15.39628 -5.46989,7.61667 -5.34095,10.88711 0.52586,13.33842 6.42551,2.68475 6.96657,2.53146 9.43642,-2.67337 2.69452,-5.67827 5.27916,-7.93346 7.92765,-6.91714 1.5462,0.59333 0.62856,2.16917 -3.90055,6.69828 -7.02482,7.02482 -8.74993,13.05281 -5.52193,19.29508 2.02569,3.91725 7.58437,8.02649 11.01444,8.1424 0.86892,0.0294 3.26892,-0.58659 5.33333,-1.36877 z m 0.6868,-18.84452 c -0.88,-0.88 -1.58004,-2.83 -1.55564,-4.33333 0.0425,-2.62001 0.15308,-2.60283 2.66667,0.41438 3.86446,4.63875 2.92446,7.95444 -1.11103,3.91895 z m 48.43761,-13.55969 c 9.92496,-4.79717 14.27771,-8.62212 16.50648,-14.50497 1.87547,-4.95034 -0.74675,-12.57489 -5.55084,-16.14003 -3.41724,-2.53594 -4.24068,-2.60889 -11.80753,-1.04598 -12.34638,2.5501 -11.82585,0.41303 0.81428,-3.3431 4.26531,-1.26748 5.70442,-5.48997 4.0787,-11.96733 -1.13242,-4.51193 -6.14159,-4.13661 -17.51095,1.312 -9.14807,4.3841 -15.52449,10.12828 -17.23878,15.52951 -1.24611,3.92615 1.67174,11.53108 5.61403,14.63208 4.08399,3.21247 7.47226,3.36357 15.09735,0.67328 3.13992,-1.10783 6.06442,-1.65877 6.49887,-1.22432 1.38557,1.38557 -4.29077,4.60725 -9.61873,5.45922 -6.1531,0.98393 -6.89858,2.43328 -4.95812,9.63958 1.27046,4.71813 1.97763,5.47309 5.12664,5.47309 2.00909,0 7.83596,-2.02187 12.9486,-4.49303 z m 408.37855,-6.50697 c 9.45805,-15.77495 10.91715,-18.98722 10.91715,-24.0347 0,-7.37458 -9.52219,-14.01425 -17.56497,-12.24776 -3.13384,0.68831 -3.76837,0.3883 -3.76837,-1.78167 0,-3.51118 -2.1964,-5.10999 -9.57097,-6.96693 -4.07168,-1.02526 -6.9885,-1.12168 -8.49126,-0.2807 -1.9591,1.09637 -15.2711,34.07653 -15.2711,37.8338 0,1.61338 10.45111,6.41513 14,6.43228 2.04454,0.01 4.34463,-3.24946 9.85901,-13.97072 6.76537,-13.15346 9.47432,-16.58927 9.47432,-12.01643 0,1.08195 -3.05971,7.69362 -6.79936,14.6926 -3.73965,6.99899 -6.46853,13.58758 -6.06417,14.64133 0.74945,1.95303 12.24342,8.52408 15.10737,8.63682 0.86745,0.0341 4.545,-4.88792 8.17235,-10.93792 z m -44.90978,-29.46231 c 3.57148,-10.15427 6.4936,-18.98886 6.4936,-19.63243 0,-2.34274 -8.03032,-5.23859 -14.52683,-5.23859 h -6.65925 l -6.15972,18.84724 c -3.38784,10.36598 -5.67098,19.31531 -5.07363,19.88738 1.66021,1.58997 14.09448,5.16298 16.92583,4.86367 1.95535,-0.20671 3.93405,-4.32401 9,-18.72727 z m -314.8667,12.9842 c 4.10742,-1.64346 5.36031,-2.86976 5.36031,-5.24653 0,-5.82085 -2.34053,-9.729 -6.09671,-10.18012 -2.8811,-0.34602 -4.0538,-1.66865 -6.08796,-6.86634 l -2.51948,-6.43776 3.01833,-2.4441 c 2.92143,-2.36563 2.95317,-2.62983 0.98878,-8.2289 -1.83401,-5.22744 -2.41682,-5.75591 -6.04898,-5.4849 -3.53373,0.26366 -4.3357,-0.38082 -6.6367,-5.33334 -3.05368,-6.57253 -5.66957,-6.84 -14.86214,-1.51965 -6.61306,3.82741 -7.95267,7.01433 -5.19228,12.35233 1.82505,3.52926 1.8233,4.10704 -0.017,5.63437 -3.7704,3.12916 1.46255,15.3782 5.95996,13.95078 1.83072,-0.58105 3.08021,0.81205 5.59248,6.23531 5.13189,11.07821 9.85557,15.71363 16.01287,15.71363 2.84252,0 7.58037,-0.96515 10.52854,-2.14478 z m 280.82696,-10.38856 c 3.95227,-3.95227 4.53334,-5.39182 4.53334,-11.23103 0,-7.54236 -3.25825,-12.57829 -11.38963,-17.60376 -2.53571,-1.56715 -4.61037,-3.40043 -4.61037,-4.07395 0,-2.14541 5.85881,-1.30052 10,1.44208 2.2,1.457 5.01599,2.65305 6.25776,2.65788 2.66302,0.0104 9.15748,-10.22633 8.15134,-12.84829 -1.38036,-3.59715 -17.84081,-10.17268 -27.12873,-10.83723 -10.18424,-0.72868 -13.57729,0.59738 -17.34673,6.7794 -5.39459,8.84731 -2.90111,17.02072 7.61468,24.96022 11.59565,8.7548 8.38931,11.01884 -5.12857,3.62135 -7.74833,-4.24017 -7.95262,-4.276 -9.50249,-1.66667 -2.65012,4.46169 -4.56906,10.5679 -3.89375,12.39013 1.66111,4.48223 18.98398,10.72679 30.10982,10.85401 7.14749,0.0817 8.17924,-0.29004 12.33333,-4.44414 z M 576.2361,233.36934 c 4.68437,-1.44685 9.84981,-3.87231 11.47876,-5.38991 2.70948,-2.52426 2.8026,-3.06701 1.09326,-6.3725 -1.02766,-1.98728 -3.02095,-4.65621 -4.42952,-5.93095 -2.44517,-2.21285 -2.76469,-2.16746 -7.06221,1.00315 -4.25297,3.13774 -10.64976,4.52066 -10.64976,2.30237 0,-0.56016 3.54612,-2.58577 7.88027,-4.50134 5.73327,-2.53395 8.48995,-4.66185 10.118,-7.81016 2.86037,-5.53134 1.76454,-11.84398 -2.7989,-16.12344 -2.8523,-2.6748 -4.71341,-3.1896 -11.10645,-3.07217 -10.18839,0.18714 -21.68589,5.36645 -25.38626,11.43581 -6.3567,10.42629 -1.12085,28.96275 9.69281,34.31545 6.95906,3.4447 10.40683,3.4681 21.17,0.14369 z m -12.72576,-24.72211 c -0.46404,-1.20927 -0.84371,-3.3996 -0.84371,-4.8674 0,-3.63323 3.21562,-2.37544 3.77956,1.47838 0.55877,3.81848 -1.74885,6.48229 -2.93585,3.38902 z m 151.7114,12.86658 c 0.39187,-0.63406 1.06521,-4.68406 1.49632,-9 1.38364,-13.85227 1.38099,-13.84716 7.17687,-13.84716 4.60853,0 5.33835,-0.46142 6.64126,-4.19896 3.15003,-9.03619 1.56709,-11.80103 -6.75639,-11.80103 -2.61929,0 -3.80348,-0.57586 -3.42733,-1.66667 0.3772,-1.09384 2.65064,-1.51988 6.61466,-1.23958 5.74903,0.40652 6.112,0.22035 7.53638,-3.86563 2.48065,-7.11602 1.90556,-9.19326 -3.1274,-11.29616 -6.07347,-2.53766 -19.76756,-2.48753 -24.75313,0.0906 -3.86414,1.99822 -7.95635,8.04568 -7.95635,11.75787 0,1.05207 -1.44787,2.86154 -3.21747,4.02103 -5.43176,3.55902 -6.22308,15.53579 -1.02602,15.52887 1.97364,-0.003 2.19271,1.50711 1.82135,12.5518 -0.37712,11.21632 -0.1639,12.62162 2,13.18165 4.32655,1.11974 16.24532,0.96765 16.97725,-0.21664 z m -41.33966,-3.20242 c 7.05979,-4.0312 10.58088,-11.14639 10.64958,-21.51996 0.0612,-9.23771 -2.13026,-14.6008 -7.62947,-18.67153 -3.13847,-2.3232 -5.6882,-2.78658 -15.33334,-2.78658 -9.81979,0 -12.32972,0.47303 -16.60121,3.12873 -7.21883,4.48812 -9.35807,9.4159 -8.71443,20.07388 1.00568,16.65326 7.20988,22.8119 22.94393,22.77546 7.32591,-0.017 10.65009,-0.69607 14.68494,-3 z m -15.70504,-13.09265 c -1.24634,-6.23173 -0.98853,-14.93599 0.51,-17.21875 2.40117,-3.65776 4.02379,1.32516 3.65581,11.22668 -0.36434,9.80397 -2.72447,13.19876 -4.16581,5.99207 z m 203.15624,0.11458 c 1.46667,-1.46667 2.66667,-3.56667 2.66667,-4.66667 0,-5.62815 -13.19479,-11.70617 -19.33727,-8.90747 -2.43581,1.10983 -3.3294,2.55439 -3.3294,5.3823 0,4.46905 1.99695,6.45831 8.98737,8.95276 6.7711,2.41619 7.91453,2.33718 11.01263,-0.76092 z"
         id="path3"
         sodipodi:nodetypes="csssscssssssssssssscssscssssscsscccsscsscccsssssscsssssssssssssssssssssssssssssssscssssssssssssssssssssssssssssssssscccssssssssssssscsssssssssssssssssssssssssssssssssssssssssssssssssscsssscsssssssssscsssssssssssssssssssssssssssssssssssssssssscsssssssssssssssssssssssssssssscccccsscsscsscccsssssssssssssssssssssssssscsssssssssssssssssssssssssssssssssssssssssssssscsssssssscsssssssssssssssssssssssssssssssssssssssssssssssssssssssscssssssssssssssssssssss"
         inkscape:label="Brand Title" />
      <path
         style="display:inline;fill:#010101"
         d="m 654.66663,1073.2167 c -22.38197,-1.3165 -30.96046,-2.5009 -72.66666,-10.033 -35.33422,-6.3814 -65.05883,-13.4705 -63.95695,-15.2534 0.36474,-0.5902 -0.39573,-1.3404 -1.68994,-1.6671 -1.29421,-0.3268 -0.25311,-0.3703 2.31356,-0.097 2.56666,0.2735 12.76666,0.8848 22.66666,1.3585 l 18,0.8613 -6.12738,-5.8598 c -3.37007,-3.2229 -7.20604,-7.7363 -8.52438,-10.0299 -2.27203,-3.9527 -3.03002,-4.2531 -14.53928,-5.7628 -18.01452,-2.363 -50.18051,-8.889 -66.55747,-13.5037 -31.64419,-8.9165 -71.64699,-25.80587 -88.36489,-37.30809 l -5.56827,-3.83107 -75.82582,-0.12574 c -41.7042,-0.0692 -77.17582,-0.45465 -78.82582,-0.85666 -2.54474,-0.62 -3,-1.61951 -3,-6.58637 v -5.85546 h 125.44443 c 68.99444,0 125.24444,-0.45 125,-1 -0.24445,-0.55 -3.14445,-4.44771 -6.44445,-8.66159 l -6,-7.66158 -111.99999,-0.22064 c -61.6,-0.12135 -123.39999,-0.11562 -137.33333,0.0127 -13.93333,0.12835 -26.98333,-0.12232 -28.99999,-0.55705 -3.39613,-0.7321 -3.66667,-1.27449 -3.66667,-7.35114 v -6.56073 l 53.66666,-0.33333 c 29.51667,-0.18334 75.56667,-0.36737 102.33333,-0.40897 26.76667,-0.0416 63.52336,-0.1916 81.68154,-0.33333 l 33.01488,-0.2577 -5.16003,-10.33333 c -5.36792,-10.74966 -10.10871,-24.07711 -11.62007,-32.66667 l -0.87977,-5 -73.51827,-0.10924 -73.51828,-0.10925 6.83591,-3.12618 c 10.69006,-4.88875 20.13215,-5.98866 51.40897,-5.98866 h 29.08845 l -0.01,-3.66667 c -0.018,-6.67739 -3.89311,-103.38379 -4.77016,-119.0423 -1.11267,-19.86541 -1.93122,-19.12805 21.98255,-19.80196 l 18.13081,-0.51095 8.99516,-18.15572 c 4.94734,-9.98565 11.07223,-20.96309 13.61087,-24.39432 5.86914,-7.93272 16.26555,-13.05359 35.93894,-17.70212 11.06517,-2.61454 15.50103,-4.32745 18.87246,-7.2876 2.42405,-2.12834 5.64678,-4.26308 7.16163,-4.74388 4.00796,-1.27207 3.46247,-2.60228 -3.3595,-8.19238 -7.01542,-5.74861 -16.60257,-18.61968 -20.30808,-27.2643 -2.23312,-5.20964 -3.25795,-6.11071 -8.56425,-7.52993 -6.9899,-1.86951 -19.72608,-12.71316 -22.33786,-19.01858 -2.17947,-5.26169 -4.00437,-5.12095 -4.02908,0.31072 -0.0283,6.2273 -3.53815,20.23958 -6.54693,26.13728 -3.95897,7.76022 -13.94299,19.36428 -21.32008,24.77957 -9.37204,6.87971 -25.45314,15.51629 -25.41284,13.64832 0.0186,-0.86084 2.97491,-5.45884 6.56963,-10.21777 3.59471,-4.75893 6.31111,-8.87733 6.03644,-9.152 -0.27467,-0.27468 -2.11192,0.76899 -4.08277,2.31926 -1.97085,1.55027 -4.25244,2.81915 -5.07021,2.81973 -0.81777,5.8e-4 -5.29073,1.80058 -9.93991,4 -15.49771,7.33161 -14.80552,4.90127 4.04596,-14.20579 8.20943,-8.32073 14.48553,-15.1286 13.94688,-15.1286 -0.53865,0 -3.20545,1.13236 -5.92624,2.51636 -6.59884,3.35668 -29.60669,11.26827 -30.41597,10.45899 -1.22699,-1.22698 6.18898,-8.73152 12.85653,-13.01007 3.69267,-2.36958 6.54114,-4.47769 6.32992,-4.68468 -0.21121,-0.207 -4.23208,-1.37165 -8.93525,-2.58811 -8.96811,-2.31958 -26.78211,-10.61767 -26.78211,-12.4756 0,-0.59561 6.75,-0.87506 15,-0.62101 l 15,0.46193 -6.91627,-2.75752 c -7.93674,-3.16438 -15.08373,-10.48455 -15.08373,-15.44924 v -3.38951 l 4.07003,4.07003 c 4.91815,4.91815 12.94942,7.3075 20.41347,6.07312 8.28593,-1.37029 8.42311,-2.04088 0.93595,-4.57553 -8.34507,-2.82509 -13.00739,-6.99073 -14.70482,-13.13835 -1.84266,-6.67355 -0.47547,-7.5424 4.70754,-2.99166 6.53776,5.74023 13.92472,7.45592 24.49471,5.68912 11.1301,-1.86042 18.35082,-6.81091 22.74978,-15.59713 2.83786,-5.66816 3.32359,-8.44152 3.26779,-18.6578 -0.0609,-11.15212 -0.51742,-13.12648 -6.4608,-27.94305 -7.99084,-19.92078 -10.08783,-29.70352 -10.11717,-47.19782 -0.0385,-22.93111 6.54137,-40.72933 20.71811,-56.0419 16.3616,-17.67248 41.5396,-23.20373 60.82864,-13.3632 8.2372,4.20231 13.10653,8.06444 15.16596,12.02894 1.34919,2.59725 3.14444,3.66204 7.05969,4.18718 2.88772,0.38733 7.12763,2.09212 9.42202,3.78844 l 4.17161,3.0842 8.97207,-2.39455 c 19.98732,-5.3344 45.05196,-3.91444 69.02222,3.91025 34.98308,11.41963 57.65251,38.5591 65.86339,78.85058 3.21481,15.77533 3.50733,33.67096 0.79878,48.86682 l -1.86131,10.44255 4.51979,5.92124 c 2.48589,3.25669 4.88181,7.85754 5.32428,10.22412 2.01776,10.79208 -7.24584,31.60691 -18.74305,42.11471 -3.85897,3.52688 -8.66147,9.66203 -10.67223,13.63366 -4.83036,9.54088 -20.40595,24.81118 -30.94647,30.33988 -4.58333,2.40404 -8.33333,4.84687 -8.33333,5.42851 0,0.58164 4.65,1.42482 10.33333,1.87374 25.58198,2.02068 30.2831,5.56652 53.66667,40.47831 9.9,14.78075 19.78133,29.39684 21.95851,32.48021 l 3.95851,5.60611 -3.59448,2.86614 -3.59449,2.86614 3.12589,7.97439 c 1.71924,4.38591 3.43843,8.89889 3.82044,10.02883 0.60754,1.79708 16.78137,6.6839 21.94089,6.62931 0.8884,-0.009 2.2715,-2.56709 3.07355,-5.68375 2.96251,-11.51196 5.5738,-18.34821 8.85616,-23.18503 1.85202,-2.72911 3.57022,-6.01564 3.81822,-7.3034 0.55086,-2.86041 28.44583,-42.0223 32.8463,-46.11311 4.99352,-4.64211 14.10434,-8.05137 27.79049,-10.39916 17.97321,-3.08322 18.66667,-3.25234 18.66667,-4.55237 0,-0.64292 -3.15,-3.17202 -7,-5.62022 -11.79307,-7.49919 -19.64308,-15.73604 -24.5061,-25.71376 -2.47164,-5.07121 -4.4939,-9.792 -4.4939,-10.49064 0,-0.69865 -1.73659,-3.24813 -3.85909,-5.66552 -4.42654,-5.04156 -12.18242,-23.99826 -13.13505,-32.10434 -0.99637,-8.47826 5.94545,-16.51911 14.26126,-16.51911 3.4552,0 3.4362,-0.46062 -0.715,-17.33333 -3.05781,-12.42861 -3.37652,-15.94553 -2.8395,-31.33333 0.49614,-14.21662 1.20518,-18.9496 3.94324,-26.32207 15.57983,-41.95011 56.57388,-67.3576 103.94852,-64.42574 25.49402,1.57774 45.48011,9.48791 64.08789,25.36494 24.20694,20.65449 35.36827,45.3971 33.97182,75.30921 -0.4,8.5681 -1.80206,18.12922 -3.58403,24.44073 l -2.927,10.36708 3.55904,4.22968 c 3.22351,3.83092 3.51035,5.05334 3.0426,12.96626 -0.9473,16.02531 -12.79117,35.60469 -23.10348,38.19292 -1.87881,0.47155 -5.21303,0.49796 -7.4094,0.0587 -3.46297,-0.69259 -4.17402,-0.31495 -5.35332,2.84315 -5.26158,14.09021 -13.0629,24.0515 -25.39483,32.42596 -4.30486,2.92337 -7.82701,5.8194 -7.82701,6.43561 0,2.4434 4.22027,4.17079 24.63571,10.08364 11.68872,3.38537 23.21744,7.36978 25.61937,8.85426 4.32781,2.67473 15.04539,16.45171 22.04542,28.33841 l 3.63384,6.1706 h 19.21845 c 27.43049,0 25.29049,-3.51781 23.52239,38.66666 -0.7838,18.7 -2.0005,43.9 -2.7039,56 -0.7033,12.1 -1.2846,27.87894 -1.2917,35.06431 l -0.013,13.06431 30.3333,-0.21375 c 31.7379,-0.22365 41.815,0.98533 53.3264,6.39766 4.8613,2.28565 2.8251,2.36415 -69.993,2.69857 -74.44235,0.34187 -75.00005,0.36462 -75.00005,3.05931 0,6.1665 -4.72108,20.75954 -10.56718,32.66355 -3.42747,6.97912 -5.9816,12.93948 -5.67585,13.24523 0.30575,0.30575 53.43551,0.24634 118.06618,-0.13202 64.6306,-0.37835 125.7602,-0.28129 135.8435,0.2157 l 18.3334,0.90362 v 6.51675 6.51675 l -7,0.28766 c -10.2587,0.42156 -13.0267,0.43706 -150.3334,0.84164 l -125.99998,0.37128 -6.89136,8.24971 -6.89135,8.24971 128.22469,0.66667 128.2247,0.66667 0.4009,5.48124 c 0.3954,5.40443 0.33,5.49297 -4.6666,6.31865 -2.7872,0.46058 -39.0367,0.84403 -80.5545,0.8521 -71.4016,0.0139 -75.65895,0.14818 -78.66668,2.48154 -5.96478,4.62742 -24.91913,14.95285 -37.33108,20.33621 -33.91745,14.71079 -77.96943,26.36529 -120.79169,31.95699 -12.08451,1.578 -12.32865,1.6822 -15.62705,6.6664 -1.84291,2.7848 -5.46855,6.7531 -8.05699,8.8184 -2.58843,2.0653 -4.70626,4.2991 -4.70628,4.964 -3e-5,0.7082 8.93626,0.8571 21.57375,0.3596 12.13903,-0.4779 21.0313,-0.3455 20.33333,0.3027 -1.48899,1.383 -31.13288,8.4605 -47.90712,11.4378 -6.6,1.1715 -17.54725,3.3079 -24.32722,4.7476 -23.0202,4.8881 -44.94757,7.9161 -67.00611,9.2529 -24.17827,1.4654 -28.29757,1.4584 -54.66666,-0.093 z m 69.99999,-13.2692 c 29.30574,-2.4877 58.13778,-8.5626 70.44975,-14.8437 6.4465,-3.2887 16.88358,-12.7993 16.88358,-15.3848 0,-1.0677 -0.75,-1.6311 -1.66666,-1.252 -45.39539,18.7737 -130.60577,24.7636 -200.68232,14.1072 -23.05067,-3.5053 -32.43741,-5.6728 -45.99563,-10.6209 -5.93127,-2.1647 -11.06671,-3.6531 -11.41209,-3.3078 -1.47118,1.4712 6.26302,10.4387 12.16783,14.1081 12.99131,8.0732 38.5876,13.7661 76.92222,17.1085 18.45598,1.6092 64.82323,1.6567 83.33332,0.085 z m 23.2721,-28.5418 c 43.36004,-6.1901 70.54431,-15.6223 98.72665,-34.25556 12.23562,-8.08979 34.76044,-28.16497 33.27326,-29.6547 -0.40039,-0.40108 -12.70039,1.00081 -27.33333,3.11532 -109.86658,15.87609 -259.66456,15.28431 -352.40928,-1.39219 -8.3255,-1.49702 -15.48932,-2.3698 -15.91961,-1.93951 -1.21729,1.21729 11.3272,13.50693 22.39023,21.93532 32.06076,24.42562 68.03796,37.66752 115.99999,42.69532 7.7,0.8072 16.1,1.6961 18.66667,1.9754 2.56666,0.2793 24.16666,0.3262 47.99999,0.1043 31.09039,-0.2895 47.64815,-1.0194 58.60543,-2.5837 z m 4.91333,-58.09354 c 35.55875,-2.02239 64.0563,-4.84128 101.1479,-10.00524 l 33.33333,-4.64073 5.73468,-6.33312 c 11.18888,-12.35651 29.58156,-41.46613 32.84018,-51.97531 0.91346,-2.94592 0.83206,-2.93697 -8.18411,0.89975 -24.14061,10.27275 -63.31104,17.41334 -121.72408,22.18973 -35.02617,2.86407 -151.64758,4.09825 -187.58583,1.98519 -58.96378,-3.4669 -98.93763,-7.67734 -121.93788,-12.84372 -21.71841,-4.87845 -35.96302,-9.29905 -45.47627,-14.11289 -6.57554,-3.32732 -6.46688,-1.99346 1.0352,12.7072 5.90192,11.56508 19.41863,30.63292 29.55347,41.69068 l 5.078,5.54043 30.66666,4.78862 c 31.43244,4.9082 60.88924,8.0845 92.66666,9.99218 26.64475,1.59956 125.45667,1.67534 152.85209,0.11723 z m -21.51876,-54.64663 c 61.5824,-2.53761 94.08452,-5.39414 129.79277,-11.40716 41.94613,-7.06343 63.9784,-14.60584 70.14145,-24.01183 8.22506,-12.55304 -7.16387,-25.03863 -41.73867,-33.86407 -17.74188,-4.52872 -48.92699,-9.48204 -64.96545,-10.31885 l -14.76989,-0.77062 -4.56344,4.07763 -4.56344,4.07763 3.33333,0.68607 c 1.83334,0.37734 9.93333,1.39011 18,2.25062 36.01407,3.84176 67.50877,11.0705 82.24361,18.87676 8.54866,4.52893 10.01506,6.79406 7.1898,11.10595 -11.8106,18.02526 -151.51411,33.01347 -268.76673,28.83486 -77.62221,-2.76628 -145.28311,-10.77826 -174.29386,-20.63879 -11.02943,-3.74882 -17.88572,-7.43588 -18.77207,-10.09493 -0.36824,-1.10472 -0.0175,-1.47179 0.87769,-0.91853 0.92227,0.56999 1.21164,0.19342 0.75859,-0.98721 -2.67726,-6.97683 26.98386,-16.80378 77.09632,-25.5426 12.98131,-2.26373 13,-2.27263 13,-6.1856 0,-2.48311 -0.84407,-4.2425 -2.30415,-4.80279 -3.41294,-1.30967 -41.87708,4.54672 -59.7905,9.10346 -36.48875,9.28184 -51.86488,19.04952 -48.49335,30.80536 0.64565,2.25125 2.20695,5.23467 3.46955,6.62983 6.48244,7.16302 37.94343,16.91436 71.78512,22.24981 58.29744,9.19114 153.85722,13.79031 225.33332,10.845 z m -25.33333,-18.58415 c 5.86666,-0.67741 11.71666,-1.63705 13,-2.13253 1.62796,-0.62854 2.33333,-0.25314 2.33333,1.24178 0,2.59773 3.65825,2.70596 25.33333,0.74951 36.96949,-3.33696 49.33333,-8.99401 49.33333,-22.57235 0,-3.98408 -4.99654,-12.84057 -10.15375,-17.99779 -1.98773,-1.98773 -2.35534,-1.9893 -4.53208,-0.0194 -1.30288,1.17909 -2.78867,4.95755 -3.30175,8.39656 -1.95693,13.11682 -7.55052,19.79797 -19.16258,22.88835 -7.87319,2.09533 -14.96708,0.65328 -21.69914,-4.41103 -3.08868,-2.32351 -7.69816,-5.72456 -10.2433,-7.5579 -4.83807,-3.48499 -10.00396,-11.55905 -8.72238,-13.63268 0.40992,-0.66327 2.83274,1.23274 5.38405,4.21337 5.07957,5.93434 8.43094,6.97726 8.43094,2.62365 0,-2.28672 1.05238,-1.63326 5.78088,3.58953 5.62748,6.21575 6.01612,6.40016 14.64599,6.94967 8.66892,0.55199 8.96883,0.46076 13.55245,-4.12286 2.98064,-2.98064 4.68734,-5.96205 4.68734,-8.18825 0,-3.40048 -0.10651,-3.44583 -3.71274,-1.58097 -4.1297,2.13555 -13.62059,4.21948 -13.62059,2.9907 0,-0.43338 2.55,-2.07417 5.66666,-3.64621 3.11667,-1.57204 8.96667,-5.95873 13,-9.74821 11.86307,-11.14583 25.08988,-21.25412 39.33333,-30.05962 13.08107,-8.0869 13.47209,-8.22794 20.66667,-7.45432 10.68994,1.14947 20.48743,-2.00598 22.68247,-7.30528 1.44114,-3.47922 1.34697,-4.386 -0.68911,-6.63584 -2.27615,-2.51512 -2.18966,-2.8118 2.48131,-8.51211 2.66181,-3.24839 7.84393,-8.1115 11.51583,-10.80692 3.67189,-2.69542 6.67616,-5.74966 6.67616,-6.7872 0,-1.03754 -0.29093,-1.88644 -0.64653,-1.88644 -2.2337,0 -20.1108,15.49453 -21.87433,18.95903 -1.2232,2.40303 -3.75813,4.73931 -5.8958,5.43379 -4.50011,1.46198 -6.62384,-0.0892 -3.03367,-2.21587 7.42692,-4.39931 8.36946,-7.74903 3.70769,-13.17695 -3.65134,-4.25143 -7.77354,-2.76718 -17.75519,6.39298 -11.29146,10.36217 -16.00985,12.93903 -31.4966,17.20133 -6.41972,1.76685 -16.17223,4.50038 -21.67223,6.0745 -13.17748,3.77146 -55.03652,10.77391 -56.40498,9.43578 -2.16056,-2.11267 13.35684,-7.12217 34.27308,-11.06442 11.80588,-2.22514 21.95057,-4.4848 22.54376,-5.02147 1.28815,-1.1654 -27.93137,-14.57934 -45.66042,-20.96154 -6.92005,-2.49112 -21.92005,-7.03802 -33.33334,-10.10422 -20.36955,-5.47232 -21.15627,-5.57533 -42.75142,-5.59726 -20.67249,-0.021 -22.65911,0.20397 -32.92305,3.72819 -18.10815,6.21761 -31.59045,16.08836 -43.00397,31.48436 -9.37507,12.64627 -13.40631,22.28351 -13.40631,32.04965 0,8.92921 1.88714,15.18807 4.34154,14.39906 0.91215,-0.29323 4.33445,-4.992 7.6051,-10.44171 10.12941,-16.87809 24.2915,-28.98288 42.62384,-36.43198 12.79778,-5.2002 22.4815,-6.63639 38.53483,-5.71509 23.33089,1.33896 25.06489,2.97602 4.22802,3.99165 -9.9,0.48255 -21.79356,1.78869 -26.43012,2.90254 -21.34845,5.12858 -41.79931,20.17693 -49.18145,36.18917 -5.19208,11.26189 -5.11345,23.75753 0.21078,33.49425 9.45449,17.28998 23.99976,20.94377 85.40079,21.45275 12.46666,0.10335 27.46666,-0.36634 33.33333,-1.04376 z m -120.44525,-7.7481 c -4.49766,-4.50838 -7.45692,-9.20856 -10.26984,-16.31156 -3.78245,-9.55118 -4.16538,-10.01295 -8.94721,-10.7894 -2.74759,-0.44614 -6.09484,-1.80594 -7.43832,-3.02177 -3.36491,-3.0452 -8.13503,-2.7672 -11.81344,0.68848 -4.30769,4.04687 -3.87702,5.10092 2.08414,5.10092 9.55631,0 10.23858,5.47934 1.26037,10.12215 -2.07008,1.07048 -3.76378,2.83092 -3.76378,3.91209 0,2.55711 -1.93977,2.50217 -4.57142,-0.12948 -2.79123,-2.79123 -2.64155,-4.85063 0.6574,-9.04456 l 2.75265,-3.49942 -5.75265,0.7573 c -7.22179,0.95072 -11.97282,-1.88134 -9.57345,-5.70666 1.04222,-1.6616 3.01153,-2.36413 6.33334,-2.25934 3.81452,0.12034 4.8208,-0.35029 4.8208,-2.25464 0,-1.3237 -0.55029,-2.74683 -1.22286,-3.1625 -1.96226,-1.21274 -28.79594,3.17244 -45.19072,7.38509 -22.79468,5.85711 -33.33753,10.96953 -29.26952,14.19331 4.70238,3.7265 36.37438,10.15295 77.59569,15.74467 l 15.91258,2.15856 2.21111,-2.93134 c 2.59565,-3.44113 7.28627,-2.68646 8.33968,1.34176 0.66556,2.54512 3.4282,3.15559 17.22721,3.80673 l 4.93651,0.23294 z m -36.22141,-5.74536 c 0,-0.77661 0.6,-1.0412 1.33333,-0.58797 0.73334,0.45322 1.33334,1.08863 1.33334,1.41202 0,0.32339 -0.6,0.58798 -1.33334,0.58798 -0.73333,0 -1.33333,-0.63541 -1.33333,-1.41203 z m 15.34215,-1.1463 c -2.43048,-0.94881 -2.29357,-1.22594 1.60046,-3.23962 4.89986,-2.53382 7.865,-2.79804 9.09349,-0.81031 2.34226,3.78986 -4.61287,6.42385 -10.69395,4.04993 z m -70.76761,-9.59074 c -0.95464,-1.54464 1.59923,-3.79519 4.34677,-3.83051 2.50856,-0.0323 3.6093,2.8247 1.58285,4.10823 -2.52436,1.5989 -4.83674,1.4906 -5.92962,-0.27772 z m 18.42546,-1.47826 c -4.90148,-2.36389 -3.70446,-5.03934 2.25465,-5.03934 6.06938,0 7.6631,1.55845 4.66237,4.55917 -2.41801,2.41802 -2.83842,2.4472 -6.91702,0.48017 z m 305.53228,20.18284 c 2.1261,-0.6722 8.22842,-1.22218 13.56071,-1.22218 18.74005,0 61.8687,-8.92487 66.94849,-13.85405 1.38464,-1.34359 1.25837,-2.04563 -0.66666,-3.70658 -3.48883,-3.01021 -19.42144,-8.77099 -31.34346,-11.33291 l -10.40288,-2.23546 -3.72054,3.5645 c -2.0463,1.96048 -4.58771,3.52389 -5.64758,3.47426 -1.10779,-0.0519 -0.65164,-0.70534 1.07296,-1.53708 1.65,-0.79577 3,-1.92797 3,-2.51601 0,-1.82903 -9.22164,-2.94255 -11.14556,-1.34584 -1.35248,1.12246 -2.36468,0.83701 -4.19204,-1.1822 -2.32385,-2.56783 -2.32315,-2.66196 0.0198,-2.66196 6.02845,0 -0.37429,-1.66841 -15.52199,-4.04468 -20.32032,-3.18771 -26.49358,-3.33981 -26.49358,-0.65272 0,1.08309 1.3865,2.87773 3.08111,3.98808 5.05577,3.31267 8.91889,11.59518 8.91889,19.12206 0,5.60836 -0.76149,7.71393 -4.61596,12.76356 l -4.61595,6.04722 8.94929,-0.72292 c 4.9221,-0.3976 10.68882,-1.2729 12.81491,-1.94509 z m -5.5323,-4.88269 c -2.38333,-1.18614 -4.33333,-2.5528 -4.33333,-3.03701 0,-1.69727 10.60176,-4.03663 14.28226,-3.1515 2.04476,0.49175 6.0585,2.06744 8.91943,3.50155 3.94797,1.979 4.75137,2.89257 3.33333,3.79038 -3.08075,1.95053 -17.50588,1.23361 -22.20169,-1.10342 z m 36.54938,-3.64726 c -2.92235,-2.92234 -1.47404,-5.6236 3.98027,-7.42369 6.68783,-2.20718 12.76952,0.4112 12.20717,5.25561 -0.36914,3.18003 -0.98568,3.50968 -7.24409,3.87334 -4.86654,0.28277 -7.44742,-0.20933 -8.94335,-1.70526 z m -24.61604,-8.9589 c -3.81624,-3.81623 0.0777,-7.73333 7.68752,-7.73333 5.45438,0 6.89339,3.54928 2.78711,6.87434 -3.4762,2.81486 -8.13658,3.19704 -10.47463,0.85899 z m -9.6,-0.25734 c 0,-0.28821 0.9,-0.86938 2,-1.29149 1.1,-0.42211 2,-0.1863 2,0.52401 0,0.71032 -0.9,1.29149 -2,1.29149 -1.1,0 -2,-0.23581 -2,-0.52401 z m 42.33333,-5.72842 c -1.28333,-0.33537 -2.33333,-1.04529 -2.33333,-1.5776 0,-1.34272 9.18877,-0.14923 10.09104,1.31068 0.7495,1.21272 -3.56981,1.36133 -7.75771,0.26692 z m -47.52691,-4.52739 c -1.75647,-0.70261 -2.84937,-1.62167 -2.42867,-2.04237 1.23387,-1.23387 9.05298,0.91924 8.22186,2.26402 -0.90856,1.47008 -1.63328,1.44235 -5.79319,-0.22165 z m 136.15028,-3.55351 c 0.52683,-5.97359 0.26182,-6.59841 -4.66554,-11 -2.87326,-2.56667 -8.25705,-7.52381 -11.96399,-11.01587 -3.70693,-3.49207 -6.83671,-6.19207 -6.95507,-6 -0.11835,0.19206 0.12451,4.06078 0.53969,8.59715 0.72119,7.88001 1.01354,8.43482 6.55363,12.43738 3.18932,2.30419 7.60147,6.24262 9.80479,8.75206 2.20331,2.50943 4.48345,4.56261 5.06698,4.56261 0.58352,0 1.3123,-2.85 1.61951,-6.33333 z m -544.29001,2.42927 c 0,-2.13428 -1.3016,-2.72653 -7.66667,-3.48847 -4.88166,-0.58436 -8.75645,-1.91451 -10.66666,-3.66169 -3.33629,-3.05153 -3.70089,-2.11688 -2.16667,5.55422 l 0.83333,4.16667 h 9.83334 c 8.82211,0 9.83333,-0.26436 9.83333,-2.57073 z m 35.66666,-10.75425 c 6.92002,-4.18867 7,-4.31196 7,-10.78939 0,-3.60376 -0.31806,-6.5523 -0.70681,-6.5523 -0.38875,0 -4.54322,3.25453 -9.23216,7.23228 -4.68894,3.97775 -9.77087,7.89886 -11.29318,8.71358 -2.1425,1.14663 -2.76785,2.77608 -2.76785,7.21216 0,3.15198 0.44723,6.17809 0.99383,6.7247 0.54661,0.5466 2.79661,-1.09818 5,-3.65506 2.2034,-2.55689 7.15617,-6.55558 11.00617,-8.88597 z m 545.60729,-1.27815 c 5.18001,-5.54523 7.27991,-14.15948 6.2872,-25.79156 -1.32649,-15.54305 -12.85346,-54.65455 -17.51249,-59.42061 -1.45925,-1.49277 -2.6873,-1.51927 -6.91162,-0.14917 -12.02664,3.90068 -33.80374,16.69343 -33.80374,19.8577 0,0.55136 2.13478,3.74256 4.74395,7.09154 5.1933,6.66584 8.52533,8.39681 18.58938,9.65709 9.92183,1.24247 15.57621,3.2843 19.66667,7.10176 5.33814,4.98188 4.50951,5.65372 -2.55931,2.07504 -3.42428,-1.7336 -8.37428,-3.1645 -10.99999,-3.17978 -7.34435,-0.0427 -20.70961,-3.18649 -24.72091,-5.81479 -6.25132,-4.09603 -10.0251,-14.43681 -10.0401,-27.51156 -0.0217,-18.8928 -5.9003,-25.26615 -25.86638,-28.04317 -9.05772,-1.25981 -10.84939,-1.14341 -15.14962,0.98426 -3.0717,1.51982 -5.5115,4.00223 -6.5911,6.7062 -1.57675,3.94913 -1.4815,4.41764 1.18865,5.84666 2.52779,1.35283 3.31651,1.05661 6.10586,-2.29315 2.2285,-2.67624 2.76138,-2.96052 1.75134,-0.93431 -2.26421,4.54214 -1.87725,6.07585 1.12724,4.4679 1.41846,-0.75914 6.72547,-1.38025 11.79335,-1.38025 7.74452,0 9.6195,0.45632 11.75432,2.86068 2.5216,2.83997 2.51891,2.84962 -0.37236,1.33333 -7.59043,-3.98071 -26.57448,0.42573 -33.00356,7.66054 -2.55916,2.8799 -2.5569,2.93191 0.25001,5.73881 2.75032,2.75032 3.00085,2.76831 8.62715,0.61961 6.96731,-2.66084 15.16959,-2.78423 19.66419,-0.29581 2.98056,1.65017 2.47126,1.75677 -5.38166,1.12641 -7.0636,-0.56699 -9.95615,-0.14458 -15.58174,2.27548 -3.79938,1.63445 -7.26087,4.08364 -7.6922,5.44264 -1.54927,4.88133 4.23403,10.55652 6.69682,6.57164 1.18956,-1.92474 15.43671,-1.55121 19.13883,0.50179 2.82863,1.56861 2.43333,1.68415 -4,1.16909 -9.47316,-0.75843 -14.47216,1.20056 -14.47216,5.6713 0,2.02101 0.9497,3.76716 2.33333,4.29015 1.28334,0.48509 5.03334,2.60415 8.33334,4.70903 5.38238,3.4331 6.75486,3.73869 13.33333,2.96872 4.03333,-0.47209 8.68333,-1.72381 10.33333,-2.78161 1.65,-1.0578 3,-1.42944 3,-0.82587 0,1.91115 -3.10955,4.2974 -5.6,4.2974 -1.32,0 -2.4,0.48053 -2.4,1.06784 0,1.24411 21.75369,22.96223 26.66667,26.62307 10.59203,7.89251 24.01967,13.51516 32.46505,13.59432 4.00002,0.0375 5.94266,-0.82001 8.80893,-3.88836 z m -577.0329,0.79794 c 3.29901,-0.99286 9.61488,-4.26124 14.03526,-7.26306 8.35811,-5.67588 31.05702,-28.89822 31.05702,-31.77318 0,-0.90504 -1.18435,-2.02143 -2.63189,-2.48086 -2.8264,-0.89707 -8.03478,-6.80047 -8.03478,-9.10697 0,-0.77164 1.66017,0.18756 3.68927,2.13156 2.08981,2.00217 6.56976,4.1971 10.33333,5.06277 8.8602,2.03798 15.57663,0.12493 23.31073,-6.63961 5.48005,-4.79306 5.81833,-5.43452 3.90354,-7.40215 -1.54597,-1.58864 -4.77791,-2.18555 -12.30835,-2.27323 -5.99728,-0.0698 -9.89251,-0.63567 -9.43803,-1.37102 0.42562,-0.68867 6.42272,-1.10153 13.32688,-0.91746 13.02032,0.34713 15.81199,-0.57556 14.96998,-4.94778 -0.95345,-4.95086 -8.88096,-7.88048 -21.32443,-7.88048 -12.1687,0 -14.3147,-1.259 -4.62324,-2.71232 3.83455,-0.57503 8.56117,-0.0853 14.05483,1.4561 7.67721,2.15411 8.4361,2.1637 10.46759,0.13221 2.76228,-2.76227 2.26463,-3.21076 -11.39802,-10.27191 -10.8197,-5.59186 -11.18234,-5.67707 -18.50878,-4.34911 -7.4541,1.35111 -7.46488,1.34822 -4.29741,-1.15067 3.25306,-2.56641 12.54959,-2.78658 19.50878,-0.46203 2.70638,0.904 3,0.57262 3,-3.38585 v -4.38793 l 3.37263,3.16843 c 1.85495,1.74263 3.08115,3.928 2.7249,4.85638 -0.80449,2.09645 1.4087,3.65099 2.55569,1.79511 0.46062,-0.74529 2.30208,-1.35508 4.09213,-1.35508 1.79006,0 3.24478,-0.45 3.23271,-1 -0.0525,-2.39491 -6.273,-11.63455 -9.3863,-13.94203 -3.25955,-2.41588 -4.00079,-2.43748 -16.99134,-0.4951 -15.61908,2.3354 -19.08242,4.14801 -22.86828,11.96854 -2.2491,4.64603 -2.73214,8.25114 -2.73214,20.39107 v 14.7472 l -9,4.67146 c -4.95,2.56929 -13.5058,5.65246 -19.0129,6.85148 -5.5071,1.19902 -12.02477,3.40351 -14.48371,4.89889 -6.0732,3.69333 -6.58958,2.47176 -1.02168,-2.41693 4.43669,-3.89546 10.44622,-6.54483 21.57858,-9.51318 5.85143,-1.56024 16.60638,-9.90054 16.60638,-12.87801 0,-2.81644 -6.52059,-8.39109 -14.66667,-12.53899 -7.30021,-3.71719 -20.52353,-8.07773 -24.49568,-8.07773 -2.24702,0 -5.79148,10.42828 -12.23601,36 -6.12258,24.29421 -4.47153,46.87097 3.85415,52.7025 3.50303,2.45362 11.93559,2.52137 19.78526,0.15897 z m 149.96079,-3.21523 c 0.84435,-0.53877 2.29167,-4.87958 3.21625,-9.64625 0.92459,-4.76666 2.79884,-11.30158 4.16499,-14.52204 1.36616,-3.22046 2.31885,-5.98289 2.11709,-6.13874 -0.20177,-0.15585 -4.7015,-2.53718 -9.99941,-5.29186 -7.15291,-3.71919 -12.34677,-7.8812 -20.17622,-16.16786 -5.79901,-6.13765 -12.26435,-11.80209 -14.36743,-12.58765 -8.9116,-3.32875 -24.07129,-13.73025 -25.4903,-17.48962 -0.92814,-2.45892 -2.39042,-3.80222 -4.13897,-3.80222 -5.36716,0 -4.53592,3.03602 2.62064,9.57173 3.95167,3.60884 5.53948,5.56557 3.52847,4.3483 -4.16126,-2.51885 -7.67696,-1.76867 -7.67696,1.63812 0,1.65186 0.40928,1.89924 1.43884,0.86968 1.02956,-1.02956 3.39998,-0.17356 8.33333,3.00933 16.12596,10.40408 25.31833,17.43274 32.10575,24.54864 6.13693,6.43393 7.35665,8.56384 8.0909,14.12845 0.47553,3.60383 1.38647,7.75241 2.02431,9.21908 0.91722,2.10906 1.17704,1.55145 1.24253,-2.66667 0.14991,-9.65556 -2.32064,-15.00906 -11.56413,-25.05859 l -8.83743,-9.60807 11.14322,10.9037 11.14323,10.90371 0.92524,11.76296 c 0.89402,11.36602 2.55947,17.80916 5.52792,21.38593 1.61749,1.94895 2.45855,2.07433 4.62814,0.68994 z m -42.57752,-60.87316 c -8.53811,-5.91018 -9.531,-7.20648 -2.59269,-3.385 3.13406,1.72618 6.67705,4.22003 7.87331,5.54188 3.00345,3.31877 2.09183,2.94642 -5.28062,-2.15688 z m 338.29489,40.69092 c 0.69853,-1.13024 -8.79039,-2.56585 -19.25257,-2.91277 -9.01121,-0.29881 -9.93084,0.43072 -2.66667,2.11543 8.77213,2.03444 20.88241,2.47496 21.91924,0.79734 z M 563.41066,812.12513 c -0.41067,-0.66449 -1.94609,-0.89451 -3.41202,-0.51116 -3.66873,0.95939 -3.33871,1.71931 0.74668,1.71931 1.87661,0 3.07602,-0.54367 2.66534,-1.20815 z m 430.9325,-63.2486 -0.34322,-11.7901 -9.82281,-0.62597 c -14.10439,-0.89882 -14.41116,-0.59674 -8.63276,8.50079 2.69179,4.23796 6.59548,9.79208 8.67486,12.3425 4.53967,5.568 4.68191,7.10591 0.89005,9.6236 l -2.89066,1.91933 2.75195,11.2433 c 1.51357,6.18382 3.84939,14.84331 5.1907,19.24331 l 2.43875,8 1.04318,-23.33334 c 0.57376,-12.83333 0.88874,-28.63887 0.69996,-35.12342 z m -190.34321,53.15659 c 5.69461,-1.47985 8.47433,-3.17675 12.43933,-7.59368 l 5.10599,-5.68799 -4.28261,-1.44194 -4.28261,-1.44194 4.17662,-3.5144 c 5.15668,-4.33906 5.43544,-5.86654 0.50995,-2.79431 l -3.66667,2.28705 3.81232,-4.14796 c 5.67538,-6.17506 2.00725,-9.59548 -5.21527,-4.8631 -3.13436,2.05371 -3.26697,2.0361 -2.51091,-0.33334 0.75308,-2.36008 0.6895,-2.3696 -1.12428,-0.16822 -2.15056,2.61012 -4.38837,3.0066 -5.63007,0.9975 -0.45407,-0.73471 0.75929,-1.9384 2.69636,-2.67487 4.07147,-1.54797 3.78205,-4.45726 -0.50609,-5.0873 -3.32022,-0.48782 -10.85052,6.61004 -10.86283,10.23901 -0.004,1.20578 -0.64647,4.49368 -1.42751,7.30645 -1.4357,5.17038 -4.46382,7.14281 -21.23172,13.82974 -3.26827,1.30336 -3.20321,1.39844 3.33334,4.87139 7.38776,3.92521 14.20129,3.977 28.66666,0.21791 z m 59.56606,-17.52513 c 9.1074,-6.83076 17.50409,-17.67818 14.94086,-19.30164 -4.42804,-2.80458 -9.897,0.91026 -11.81246,8.0237 -0.94989,3.52763 -3.25485,6.6671 -7.37158,10.04045 -3.29425,2.69939 -5.98955,5.84128 -5.98955,6.98198 0,1.47531 0.4811,1.69241 1.66667,0.7521 0.91667,-0.72703 4.77139,-3.6505 8.56606,-6.49659 z M 380.83426,769.95597 c -0.41282,-1.07581 -1.96942,-1.95602 -3.4591,-1.95602 -3.53389,0 -3.42397,-2.12371 0.37305,-7.20747 3.70378,-4.95893 12.91843,-21.70511 12.91843,-23.47723 0,-1.12961 -16.65752,-0.55701 -18.59292,0.63913 -0.8668,0.53571 0.65729,35.19952 2.02451,46.04557 l 0.92443,7.33334 3.2811,-9.71066 c 1.8046,-5.34085 2.94333,-10.59085 2.5305,-11.66666 z m 354.24816,9.68862 c -2.06202,-2.20373 -7.34913,-6.39095 -11.74913,-9.30494 -4.4,-2.91399 -6.5,-4.86461 -4.66667,-4.3347 6.55121,1.89357 16.21893,7.91412 20.7346,12.91244 4.73812,5.24453 9.43854,6.58678 10.78438,3.07958 1.52164,-3.96534 -0.96463,-8.17953 -11.2954,-19.14551 -9.8801,-10.48762 -10.75131,-11.0939 -14.69647,-10.2274 -2.68163,0.58899 -4.19377,0.40215 -4.19377,-0.51816 0,-1.46389 2.56105,-1.97642 7.29259,-1.45944 3.78878,0.41398 7.90634,4.00771 17.57443,15.33865 4.69982,5.50817 9.44622,10.01484 10.54756,10.01484 3.9828,0 3.62695,-4.42417 -1.12892,-14.03564 -5.88071,-11.88469 -11.25529,-18.17898 -18.6469,-21.83777 -3.60291,-1.78342 -4.67597,-2.78573 -2.9721,-2.77614 1.46667,0.008 5.27791,1.50778 8.46943,3.33228 6.70125,3.83091 7.84225,4.10268 5.53057,1.31728 -1.35588,-1.63374 -1.27544,-2 0.43927,-2 1.33027,0 4.06242,4.18955 7.45929,11.43828 3.96465,8.46035 5.94014,11.32418 7.58789,11 6.63256,-1.30489 5.51876,-10.8583 -2.65532,-22.77547 l -5.71325,-8.32948 -10.55894,0.42357 c -14.47413,0.58063 -18.18384,2.02593 -25.18381,9.81158 -4.77386,5.30968 -6.76503,9.08366 -9.46798,17.94527 -1.88254,6.17186 -3.23177,12.20373 -2.9983,13.40416 0.28707,1.47603 5.17251,3.75692 15.09115,7.04567 16.91486,5.60849 19.90031,5.54244 14.4158,-0.31895 z m -117.63515,-7.88416 c 2.52898,-0.88161 8.67806,-5.86246 13.99148,-11.33333 8.19401,-8.43681 10.09538,-9.75147 14.02039,-9.69402 l 4.54082,0.0665 -5.71875,2.77271 c -5.02365,2.43568 -14.94791,12.38129 -14.94791,14.98006 0,1.16042 10.15733,-0.17485 19.93231,-2.62028 4.15336,-1.03905 7.86578,-1.32551 8.66666,-0.66872 0.77056,0.63191 3.50102,1.35229 6.06769,1.60084 4.46968,0.43282 4.64836,0.28404 4.23291,-3.52483 -0.77089,-7.06761 -7.22173,-18.45677 -12.23291,-21.5976 -2.56667,-1.60869 -6.43935,-4.30869 -8.60596,-6 -3.3627,-2.625 -5.99735,-3.18088 -18,-3.79778 -18.31526,-0.94135 -19.82245,-0.20723 -26.12064,12.72268 -6.34254,13.02097 -2.68592,23.39961 5.64715,16.02839 2.7784,-2.4577 3.31118,-3.60129 2.06244,-4.42692 -1.28565,-0.85004 -0.73975,-2.82574 2.30918,-8.35734 2.19607,-3.98427 4.00373,-6.19413 4.01701,-4.91079 0.0315,3.04232 0.77676,2.95501 8.58346,-1.00558 3.60762,-1.83027 7.50762,-3.30124 8.66667,-3.26883 1.15905,0.0324 -0.0279,1.18789 -2.6377,2.56773 -6.88932,3.64251 -12.79549,10.20373 -17.3008,19.21966 -3.91519,7.835 -5.0117,12.82035 -2.81977,12.82035 0.6239,0 3.16472,-0.70779 5.64627,-1.57286 z m 246.65847,-63.6541 c 8.32752,-3.12808 17.62535,-10.4297 20.59584,-16.17398 2.55312,-4.93719 2.50497,-11.90151 -0.10807,-15.63215 -1.89306,-2.70271 -2.38522,-2.80192 -5.66667,-1.14226 -1.97646,0.99963 -6.89356,2.56175 -10.92689,3.47137 -4.03333,0.90961 -12.31978,3.75961 -18.41433,6.33331 -14.84446,6.26876 -21.86922,5.87665 -37.33026,-2.0837 -6.04579,-3.11277 -11.55688,-5.31067 -12.24687,-4.88424 -0.68999,0.42644 -0.88849,2.70208 -0.44111,5.05698 2.46305,12.96489 13.61514,23.92176 28.07853,27.58703 8.0451,2.03876 27.97598,0.65444 36.45983,-2.53236 z m -316.40661,-0.80722 c 9.85924,-2.92788 17.62494,-9.28251 21.98282,-17.98843 3.36885,-6.7301 5.3984,-18.67478 3.49627,-20.57691 -0.40116,-0.40116 -4.58038,0.90078 -9.28715,2.89321 -6.89458,2.91855 -10.64057,3.62738 -19.27458,3.6472 l -10.71682,0.0246 -22.38629,-11.20867 -22.38629,-11.20866 -2.89689,3.39489 c -1.59329,1.86718 -3.9469,3.75002 -5.23023,4.18407 -6.50668,2.2007 1.54615,26.47475 11.75714,35.44011 5.59575,4.91314 16.00201,10.3585 22.90409,11.9852 8.10667,1.9106 24.64882,1.60771 32.03793,-0.58662 z m 301.54512,-27.29659 c 4.81563,-2.18982 12.9557,-5.2551 18.08903,-6.81174 27.10299,-8.21877 44.87947,-24.29377 50.71817,-45.86367 2.36273,-8.72864 2.44738,-8.83848 4.21354,-5.46764 3.2862,6.27195 12.50374,5.7993 18.8527,-0.96671 4.32959,-4.61401 11.2541,-20.68882 11.9265,-27.68664 0.555,-5.77592 0.21082,-6.82288 -3.44459,-10.47829 -4.62942,-4.62942 -10.02178,-5.29037 -16.37169,-2.00671 -2.18512,1.12997 -4.55533,1.69456 -5.26712,1.25465 -0.7118,-0.43992 -1.29418,0.25556 -1.29418,1.54551 0,4.57596 -2.5543,-0.20049 -4.74156,-8.86656 -4.64791,-18.41528 -12.77879,-32.57788 -33.84204,-58.94694 -10.32945,-12.93144 -11.4508,-13.947 -11.77772,-10.66666 -0.33704,3.38193 4.7092,25.88996 7.05013,31.44605 0.90459,2.147 0.61,2.35544 -2.15378,1.52391 -10.35327,-3.11495 -24.10442,-15.90616 -29.51438,-27.45406 -1.66135,-3.54626 -3.36047,-6.47234 -3.7758,-6.5024 -1.84649,-0.13363 0.47357,16.88494 3.40149,24.95125 1.77606,4.89299 3.00431,9.12124 2.72944,9.3961 -0.86495,0.86495 -13.10543,-6.60446 -19.70911,-12.02692 l -6.33333,-5.20048 v 5.424 c 0,4.92214 -0.22575,5.28301 -2.43984,3.90029 -4.0739,-2.54419 -9.24766,-11.99029 -11.92963,-21.78077 l -2.5398,-9.27149 -2.25611,3.44326 c -1.24086,1.89379 -3.28627,7.71406 -4.54536,12.93394 -1.36724,5.66821 -2.98255,9.49448 -4.0106,9.50009 -0.94674,0.005 -2.80885,-2.54059 -4.13803,-5.65725 l -2.41669,-5.66667 -4.87873,9.66667 c -2.6833,5.31666 -5.73442,9.66666 -6.78027,9.66666 -2.04576,0 -3.84832,-8.28712 -3.98683,-18.32908 -0.043,-3.11433 -0.518,-5.66433 -1.05565,-5.66667 -1.42849,-0.006 -6.97426,11.40214 -10.38236,21.35786 -2.52567,7.37796 -3.16863,13.49993 -4.40802,41.97122 -2.28397,52.46697 -2.12545,57.21792 2.22439,66.66667 4.49066,9.75462 10.78877,16.55063 22.2102,23.96606 10.61857,6.89417 30.80273,17.88845 37.24409,20.28679 6.44431,2.39944 14.76433,1.22251 25.33354,-3.58363 z M 822.942,664.19837 c -0.96249,-0.6106 1.68894,-0.8515 6,-0.54513 10.53278,0.74852 11.91651,1.45188 3.05795,1.55437 -4.03333,0.0467 -8.10941,-0.40749 -9.05795,-1.00924 z m -1.60872,-7.01421 c -5.55676,-1.66885 -9.23076,-4.8916 -15.78785,-13.84879 -2.68335,-3.66553 -6.37881,-7.96449 -8.21214,-9.55324 -5.22655,-4.52929 -2.31479,-4.989 5.52917,-0.87295 7.02206,3.68476 7.48552,3.74231 28.65793,3.55845 20.38553,-0.17703 21.95003,-0.37967 29.66666,-3.84269 4.48043,-2.0107 8.14623,-3.97663 8.14623,-4.36874 0,-0.39211 -1.0204,-1.84046 -2.26756,-3.21856 -2.10337,-2.32419 -1.78958,-2.30203 4.33333,0.30605 7.20579,3.06932 10.97532,6.05963 9.49931,7.53564 -0.51857,0.51857 -1.65286,0.23285 -2.52063,-0.63492 -0.86778,-0.86778 -3.17707,-1.57778 -5.13175,-1.57778 -2.78964,0 -5.28402,2.09152 -11.59827,9.72506 -11.16148,13.49355 -16.74175,17.11925 -27.26906,17.71769 -4.60828,0.26197 -10.4787,-0.15439 -13.04537,-0.92522 z m 17.28136,-5.28673 c 5.53984,-1.27661 17.38531,-9.35273 17.38531,-11.85312 0,-0.61075 -4.34844,0.40178 -9.6632,2.25007 -8.22799,2.86141 -11.04339,3.23226 -18.95594,2.49686 -5.11101,-0.47502 -10.71463,-1.79532 -12.45249,-2.93401 -3.66094,-2.39874 -5.46285,-1.41605 -3.43508,1.87335 1.96652,3.19006 13.84368,9.54071 17.84004,9.53897 1.83334,-7.9e-4 6.00995,-0.61825 9.28136,-1.37212 z m -49.28135,-19.08727 c 0,-1.39823 -0.65386,-1.97255 -1.66667,-1.46393 -0.91667,0.46035 0.6833,-1.30424 3.55548,-3.92131 7.06036,-6.43323 8.62739,-6.0018 3.29937,0.90838 -2.40308,3.11666 -4.55349,5.91666 -4.77871,6.22222 -0.22521,0.30555 -0.40947,-0.47986 -0.40947,-1.74536 z m 31.99999,-14.14353 c -1.1,-0.71087 -3.65,-1.30169 -5.66666,-1.31292 -2.01667,-0.0112 -3.66667,-0.62041 -3.66667,-1.35375 0,-2.5544 9.94752,-1.48108 12.3573,1.33334 2.45596,2.86836 0.61047,3.68208 -3.02397,1.33333 z m 8.79392,-0.51749 c 1.06863,-2.7848 5.98589,-4.0082 11.75799,-2.92534 3.10007,0.58157 4.75103,0.31167 5.2193,-0.85326 0.47783,-1.1887 0.71676,-1.22375 0.7902,-0.11593 0.15089,2.27638 -2.36428,3.50607 -7.81238,3.81951 -2.61196,0.15028 -6.10794,0.71738 -7.76884,1.26023 -2.44893,0.80041 -2.86224,0.57635 -2.18627,-1.18521 z m 95.9416,-11.26556 c -1.07943,-3.40098 3.937,-14.17027 8.14099,-17.47713 7.00864,-5.513 12.58841,-2.41967 12.33657,6.83919 l -0.12025,4.42099 -1.31083,-4.66667 c -1.86588,-6.64268 -4.1031,-8.63555 -7.59589,-6.76627 -1.53542,0.82173 -3.43905,2.70372 -4.23031,4.18219 -1.17524,2.19595 -0.81465,3.4297 1.96945,6.73841 4.29071,5.09922 4.84559,9.89149 0.62015,5.35601 -2.98156,-3.20033 -6.59891,-3.35474 -7.60789,-0.32474 -0.42651,1.28082 -0.0493,1.51037 1.22285,0.74405 1.56099,-0.94034 1.56246,-0.76649 0.01,1.14774 -2.2886,2.82141 -2.48101,2.81055 -3.43455,-0.19377 z M 781.33329,587.17279 c 0,-0.41864 1.18443,-2.42455 2.63207,-4.45757 3.40974,-4.78854 9.50508,-7.25828 15.50892,-6.28399 13.43999,2.181 12.05344,12.18447 9.3287,11.13889 -4.38774,-1.68373 -20.34844,-2.39081 -23.80303,-1.0545 -2.01666,0.78009 -3.66666,1.07582 -3.66666,0.65717 z m 70.66666,-1.73679 c 0,-0.87459 8.66569,-14.70844 22.39954,-7.56272 1.98025,1.03032 5.10046,3.51494 6.93379,5.52137 l 3.33333,3.64805 -3.93286,-0.94692 c -4.89661,-1.17895 -20.57232,-1.18846 -25.2465,-0.0153 -2.23306,0.56046 -3.4873,0.32867 -3.4873,-0.64446 z m 27.50172,-30.94344 c -3.57405,-1.41238 -10.17405,-2.95422 -14.66666,-3.42632 -8.12762,-0.85407 -8.14843,-0.86716 -4.16839,-2.62217 7.1573,-3.15605 21.62858,0.54586 24.72087,6.32386 0.75512,1.41095 1.20184,2.50399 0.9927,2.42898 -0.20913,-0.075 -3.30447,-1.29198 -6.87852,-2.70435 z m -99.20844,-0.0391 c 0.83517,-2.5055 9.32123,-6.45349 13.87154,-6.45349 2.31353,0 5.50371,1.05 7.08929,2.33333 2.82753,2.28855 2.75797,2.32476 -3.62398,1.88671 -3.8957,-0.26739 -8.5365,0.40143 -11.56465,1.66667 -6.0439,2.5253 -6.43793,2.56399 -5.7722,0.56678 z M 555.21267,668.64203 c 8.42181,-2.19361 37.35697,-17.73923 47.7011,-25.62777 10.04277,-7.65871 16.02699,-16.02455 20.62442,-28.83255 2.26053,-6.29764 5.7452,-48.96011 5.77512,-70.70433 l 0.02,-14.52258 -5.11776,-8.14408 c -7.28842,-11.59836 -16.53029,-31.29454 -21.96459,-46.81075 -2.56838,-7.33333 -5.11487,-14.44879 -5.65886,-15.81213 -0.78596,-1.96977 -1.65959,-0.87455 -4.25428,5.33334 -8.09127,19.35861 -22.76946,32.32264 -46.86545,41.39234 l -8.70604,3.27695 6.70881,-7.09525 c 7.6374,-8.07732 19.54797,-23.84989 18.67177,-24.72609 -0.32109,-0.32109 -4.48299,3.10403 -9.24868,7.61137 -20.90217,19.76912 -43.03571,32.58138 -71.56492,41.42623 -7.69999,2.38721 -14.40208,4.69728 -14.89351,5.13348 -0.49144,0.4362 -2.13775,7.79433 -3.65848,16.35141 -1.52072,8.55707 -3.42672,17.25707 -4.23556,19.33333 l -1.4706,3.77502 -4.20426,-5.23335 c -9.58535,-11.9316 -15.0879,-16.76774 -19.02881,-16.72425 -11.62393,0.12829 -13.45643,13.92182 -4.41608,33.2406 4.61698,9.86626 6.47636,12.23926 13.77402,17.57886 6.4442,4.71512 9.52382,4.80547 11.85937,0.34792 1.78017,-3.39759 1.85198,-3.30639 4.18621,5.31696 4.32203,15.96685 15.86132,31.41982 31.42104,42.07781 9.72579,6.66191 38.26017,21.03945 44.8029,22.57472 7.67222,1.80031 11.12998,1.70623 19.74313,-0.53721 z m -16.25022,-20.19047 c -5.65955,-2.78953 -4.98886,-3.28865 1.93555,-1.44042 6.40713,1.71016 14.15111,-0.0204 19.30575,-4.31418 l 3.12955,-2.60692 -4.65786,1.28829 c -6.15325,1.7019 -14.28831,1.62913 -22.83721,-0.20428 -8.50214,-1.82338 -16.97655,-9.21763 -23.75394,-20.72621 -7.2383,-12.29126 -7.68536,-12.65001 -14.66471,-11.76817 -5.95037,0.75183 -6.00804,0.72401 -2.58273,-1.2458 4.83597,-2.78105 22.60671,-6.45371 19.21027,-3.97017 -1.33392,0.97538 -3.09022,2.05737 -3.9029,2.40442 -4.8757,2.08212 15.98259,9.9253 34.12536,12.83189 8.14266,1.30451 12.97524,1.30472 23.33333,10e-4 17.03587,-2.14419 24.05571,-5.626 20.34858,-10.09281 -0.88626,-1.06787 -1.07719,-1.94159 -0.4243,-1.94159 1.75847,0 11.13944,6.59046 11.13944,7.82585 0,2.40677 -1.93225,2.7121 -4.19637,0.6631 -2.25862,-2.04402 -2.73932,-1.89513 -7.5236,2.33043 -2.81095,2.48267 -6.86964,6.8047 -9.0193,9.6045 -6.08282,7.92248 -18.81818,20.07265 -22.90163,21.84931 -5.12338,2.22912 -10.90678,2.05333 -16.06328,-0.48826 z m 17.70418,-14.95924 c 2.93334,-1.34699 6.53334,-3.82801 8,-5.51337 l 2.66667,-3.0643 -3.33333,0.8767 c -12.61653,3.31828 -23.70189,1.90934 -37.28403,-4.73878 -4.79378,-2.34644 -9.31597,-4.51591 -10.0493,-4.82106 -4.45182,-1.85243 13.19267,13.78981 18.5873,16.47806 7.82389,3.89881 14.12524,4.12916 21.41269,0.78275 z m 5.33334,-31.54051 c 2.2,-1.00736 5.12346,-1.85863 6.49659,-1.89171 2.06652,-0.0498 2.21066,-0.40466 0.83674,-2.06014 -1.33843,-1.6127 -1.3055,-1.99604 0.17007,-1.97958 2.18187,0.0243 6.01939,2.28274 5.12465,3.01588 -4.05492,3.32257 -8.03924,4.94487 -11.92473,4.85541 l -4.70332,-0.10829 z m -9.21475,-0.27771 c -0.54589,-0.54589 -4.38997,-1.29589 -8.54241,-1.66666 -6.22081,-0.55547 -7.63196,-1.14358 -8.01615,-3.34081 -0.45251,-2.58791 -0.41023,-2.59253 1.43148,-0.15665 1.6785,2.22 2.45508,2.32608 6.72117,0.91814 5.0911,-1.68021 8.25829,-0.81289 11.56024,3.16572 1.422,1.7134 1.38372,2.07279 -0.22077,2.07279 -1.06757,0 -2.38767,-0.44664 -2.93356,-0.99253 z M 447.52198,580.3333 c 0.79922,-3.07887 -2.63098,-7.70806 -4.74397,-6.40217 -0.89457,0.55288 -1.29247,1.87571 -0.88421,2.93962 0.41452,1.08022 0.16028,1.57468 -0.57577,1.11978 -1.71688,-1.0611 -1.70567,-6.92696 0.0153,-7.99056 4.33675,-2.68026 -1.41686,-9.65319 -6.80298,-8.24469 -1.59912,0.41818 -2.53036,-0.0284 -2.53036,-1.21347 0,-2.44391 4.46425,-2.39308 9.29665,0.10585 2.69081,1.39148 4.60453,4.0699 6.43046,9 4.68435,12.64798 4.73624,13.01897 1.8209,13.01897 -1.84822,0 -2.45137,-0.69464 -2.026,-2.33333 z m 152.80484,-13.11523 c -5.57489,-2.43778 -18.32826,-2.76341 -21.01154,-0.53649 -3.4318,2.84815 -3.52251,0.64454 -0.1056,-2.56548 7.04273,-6.6163 17.68996,-5.87799 24.68937,1.71203 3.59517,3.89854 2.8382,4.19307 -3.57223,1.38994 z m -73.37617,-4.81343 c -6.14299,-3.79534 -11.68548,-4.77538 -20.95068,-3.70457 -4.4,0.50853 -8.20814,0.7509 -8.46254,0.53859 -0.2544,-0.2123 1.85018,-1.56586 4.67683,-3.00791 11.44551,-5.83906 23.35272,-3.09291 28.52934,6.5797 1.60312,2.99546 1.73507,3.00957 -3.79295,-0.40581 z m 81.71598,-23.81097 c -3.01354,-1.42603 -8.52304,-2.58629 -12.66667,-2.6675 l -7.33333,-0.14373 4.42835,-1.93383 c 5.87926,-2.56743 12.81027,-1.17713 18.08857,3.62844 4.83491,4.40188 4.62367,4.4956 -2.51692,1.11662 z m -87.94172,-8.99209 c -6.47613,-1.66085 -9.28893,-1.75414 -15.24188,-0.50549 -4.01509,0.84217 -7.55049,1.28089 -7.85646,0.97493 -0.89412,-0.89413 13.16111,-4.73772 17.32489,-4.73772 4.35696,0 12.28788,3.02392 13.63109,5.19729 0.49947,0.80816 0.72272,1.388 0.49611,1.28855 -0.22661,-0.0995 -3.9858,-1.09736 -8.35375,-2.21756 z m 236.42708,86.23802 c 0.23468,-6.63068 -1.60637,-11.20694 -3.93069,-9.77042 -1.33727,0.82648 -3.27005,-5.79829 -2.04814,-7.0202 0.45474,-0.45474 0.8268,0.17321 0.8268,1.39543 0,1.22222 0.6,2.22222 1.33333,2.22222 2.27367,0 1.46917,-4.80102 -1.41998,-8.47398 -4.32466,-5.49791 -1.53785,-7.42309 2.98322,-2.06085 l 3.82346,4.53483 -0.36002,-5.30905 c -0.30073,-4.43486 -0.96058,-5.51896 -4.00734,-6.58392 -3.03767,-1.06177 -4.20773,-0.7484 -7,1.8748 -5.18053,4.86686 -4.78729,7.18287 5.3798,31.68484 2.58411,6.22751 4.14199,5.34849 4.41956,-2.4937 z M 636.75407,600.99996 c 9.31967,-11.04076 13.75267,-27.49439 9.17029,-34.03665 -2.73267,-3.90143 -4.04833,-3.73806 -5.66424,0.70332 -0.73373,2.01667 -2.28706,5.88457 -3.45186,8.59534 -2.98676,6.95093 -0.33837,7.58595 3.05413,0.73231 1.54117,-3.11354 2.80261,-4.88118 2.80319,-3.9281 0.002,2.98639 -3.78648,9.21869 -7.16979,11.79538 -2.75275,2.09646 -3.32471,3.83818 -3.76719,11.47174 -0.28693,4.95 -0.0966,9 0.42298,9 0.51957,0 2.59069,-1.95 4.60249,-4.33334 z M 448.51486,455.1009 c 4.8275,-7.57831 6.18419,-10.75148 5.23808,-12.25138 -2.34172,-3.7124 -3.80614,-2.93215 -8.24592,4.39346 -4.2418,6.99893 -7.11389,18.0931 -4.68261,18.08773 0.64656,-0.001 4.10726,-4.60484 7.69045,-10.22981 z m 16.81845,-19.04599 c 0,-1.88187 15.93369,-13.72411 22.65675,-16.83895 6.1739,-2.86041 6.6674,-3.40845 5.32607,-5.91474 -3.3534,-6.26589 -11.70435,-6.33929 -23.12337,-0.20322 -6.85698,3.68463 -16.85945,13.9281 -16.85945,17.26565 0,1.09353 1.24091,3.99608 2.75759,6.45011 2.67133,4.32231 2.859,4.39542 6,2.33736 1.78332,-1.16848 3.24241,-2.56177 3.24241,-3.09621 z"
         id="path2"
         inkscape:label="O GODs"
         sodipodi:nodetypes="cssssscssssscssscssscsssscssscsscccsscssscssssssssssssssssssssssssssscsscssssssssssssssscsssscssssssssscccsscssssssssssssssssssscsssssssssscsssscsssssssscccsscccccsssssssssssssscccsscsscssccssssssssssssscssssssssscsssssssscccsssssssssssssssssssssssssssssssssssssssssssssssssssssssssssssssssssssssssssssssssssscsssssssscssscssssssssssssssssssssssscsssssssssssscsssssssssssssssssssssssssssssssssssssssssssscsssssssssssssssssssssssssssssssssssssssssssssssssssssssssssssssssssssssssssscssssssssscsssssssssssssssssssssssssssssscccsssssssssssssssscsssscsscsssscccsscssssssssssssssssssssssssscssssssssssssssscsssssscssssssssscssssssssssssssssssssssssssssssssssssscccsssssssssssssssssssssssssscssscsssscssscssssssssssssssssssssssssssssssssssssssssssssssssssscsscssssssscccssssssssscsssssssssssssssssssscssssscssssssscssssssssssssscsssssssssssssssssssscssssssssssscsssssssssssssssssssssssssssssssssscssssssssssssssssscsssssssssscssssssscsssssssss" />
    </g>
  </g>
</svg>
